<?xml version="1.0" encoding="UTF-8"?>
<svg id="Layer_7" data-name="Layer 7" xmlns="http://www.w3.org/2000/svg" xmlns:xlink="http://www.w3.org/1999/xlink" viewBox="0 0 2029.87 648.51">
  <defs>
    <style>
      .cls-1 {
        letter-spacing: -.03em;
      }

      .cls-2 {
        letter-spacing: .07em;
      }

      .cls-3 {
        fill: #ef7c22;
        font-family: Nicholas-Bold, Nicholas;
        font-size: 118.76px;
        font-weight: 700;
      }

      .cls-4 {
        letter-spacing: .05em;
      }

      .cls-5 {
        letter-spacing: .05em;
      }

      .cls-6 {
        fill: #e22b2b;
        font-family: Nicholas, Nicholas;
        font-size: 227.36px;
      }

      .cls-7 {
        letter-spacing: .08em;
      }

      .cls-8 {
        fill: url(#linear-gradient);
      }

      .cls-9 {
        letter-spacing: .05em;
      }
    </style>
    <linearGradient id="linear-gradient" x1="109.53" y1="327.83" x2="660.51" y2="327.83" gradientUnits="userSpaceOnUse">
      <stop offset="0" stop-color="#e22b2b"/>
      <stop offset=".35" stop-color="#e54129"/>
      <stop offset=".6" stop-color="#ec6824"/>
      <stop offset="1" stop-color="#ef7c22"/>
    </linearGradient>
  </defs>
  <path class="cls-8" d="M385.49,148.86c-3.46,9.42,15.26,19.71,22.55,20.71,6.99.96,15.6-1.11,22.38.61,6.44,1.64,19.39,13.56,21.58,20.03,4.1,12.12,3.25,34.9-6.85,44.03-5.64,5.09-20.33,15.99-26.84,20.23-2.27,1.48-2.98,1.81-7.08,3.87-.27-8.46,10.4-22.98,10.4-22.98,0,0-15.23,8.62-17.53,19.7-2.74-3.02-4.55-16.58-19.19-16.58s-21.2,16.14-21.59,16.4c-8.65-12.77-21.02-18.51-22.26-19.66,2.88,4.79,12.04,15.49,14.95,22.72-14.04-1.74-18.7-1.38-10.45,10.24-9.85.14-29.77-8.88-31.21-10.94,2.04,8.74,15.65,23.17,15.65,23.17-6.15,0-8.57,7.06-8.31,12.4.5,10.13,9.97,23.06,9.97,28.13,0,5.54-5.57,10.79-9.83,16.59-6.78,9.23-18.16,30.72-3.57,42.44,9.26,7.44,35.28,12.74,42.06,10.84-4.64,16.25-10.88,31.47-12.02,49.26,0,0,23.46-28.62,25.06-26.82-2.31,13.36-1.41,16.93-1.33,30.57l13.01-27.29c2.16,3.25,8.7,14.75,13.33,26.94.95-3.18-2.23-30.06-2.23-30.06,0,0,19.45,21.17,22.15,28.55.55,1.52-5.12-41.72-10.66-51.36,14.66,14.25,24.67,31.64,46.43,35.11,5.99.96,18.89.11,23.37,4,5.92,5.14,9.06,30.42,7.71,38.3-5.29,30.99-38.07,15.53-58.27,21.64-11.63,3.51-19.57,18.28-31.5,22.65-5.05,1.85-8.31,6.75-7.87,12.1l.3,3.66c.38,4.54,4.71,7.7,9.14,6.61,3.66-.9,7.17-2.55,10.37-4.37,6.79-3.86,21.3-20.73,26.87-20.2,1.28.12,2.04.67,2.85,1.61,3.78,4.36,10.82,40.2,10.94,47.11.1,5.52-1.04,17.55-2.56,22.71-2.01,6.83-4.52,14.95-11.31,17.68-22.96,9.23-35.81-17.45-66.29-2.91-36.65,17.49-81.08-20.76-83.47-26.05-8.66-19.11-2.28-25.81,6.14-41.84l31.53-47.83c-29.57,5.56-54.35,27.64-64.09,55.84-1.43,4.15-6.25,5.99-10.09,3.87-5.38-2.97-10.58-6.34-16.29-9.2-15.43-7.73-48.51-17.82-58.23-30.45-7.4-9.62-9.48-21.5-14.95-32.13-2.9-5.63-30.87-27.01-19.18-38.28-18.42-3.93-20.1-26.33-24.73-42.38-.54-1.87,1.25-3.56,3.09-2.92,38.71,13.37,78.62-10.27,93.89-46.67-1.69-1.59-26.83,14.96-30.63,16.99-15.52,8.27-33.17,15.7-50.95,16.93-13.58.94-18.88,2.35-20.22-12.6-.36-4.04.34-23.92,1.3-27.13.77-2.58,11.54-12.8,14.04-17.71,10.48-20.52-11.45-22.72-14.02-35.32-2.18-10.74-.37-41.72,2.73-52.61,4.42-15.52,21.44-39.62,35.69-46.32,1.57-.74,2.13-2.67,4.6-3.16,15.32-3.07,46.06,18.88,57.48,28.97,6.04,5.34,10.87,11.79,16.43,17.51,1.04,1.07,1.43,2.07,3.26,1.66,6.72-37.05-32.94-62.43-64.73-69.92-1.58-.37-2.37-2.14-1.57-3.55,10.34-18.09,27.71-32.83,49.88-29.45-.72-1.67-1.25-2.68-.93-4.63.87-5.32,19.41-23.55,24.2-22.54,5.38,1.13,21.55,21.22,24.93,26.6,11.1,17.67,15.37,38.9,15.31,59.7,1.5,2.04,8.81-15.12,9.27-16.44,10.63-30.31,3.85-62.05-18.28-84.6-1.32-1.35-.5-3.64,1.37-3.86,2.67-.31,5.36-.44,7.91-1.56,4.94-2.17,10.56-9.44,15.78-12.68,21.95-13.63,52.82-8.49,75.85,3.39,7.78,4.01,16.94,4.63,25.07,1.39.05-.02.1-.04.14-.06,9.42-3.79,16.95-10.95,27.87-9.22,9.69,1.54,18.71,15.17,27.98,19.09,16.77,7.09,30.1-4.22,44.35,13.67,11.54,14.49-1.04,15.48-10.43,23.54-6.37,5.47-11.4,15.74-20.82,13.19-12.96-3.51-15.45-13.93-23.62-21.27-7.41-6.66-17.29-5.36-26.2-2.34-21.48,7.26-28.98,44.92-28.98,44.92ZM492.42,430.06c22.51,5.04,56.69,34,79.48,30.57,5.61-.85,15.9-6.68,19.24-11.41,6.68-9.46,2.02-19.7,8.46-29.85,6.89-10.86,20.21-18.33,18.65-34.02-2.35-23.56-50.51-49.63-72.22-52.44-2.96.83-.71,7.36-1.15,10.88-3.04,24.34-24.36,20.65-32.58,39.73-3.38,7.84-3.5,15.53-9.21,22.54-3.69,4.53-10.27,9.04-15.7,11.15l5.02,12.86ZM586.94,234.8c-1.17-11.57-14.36-19.82-19.91-29.34-8.66-14.85-10.44-38.37-29.38-45.07-11.41-4.03-25.73.32-34.93,7.71-8.25,6.63-6.33,15.8-12.63,22.4-2.82,2.96-38.23,23.77-32.33,29.52,5.65-.31,10.46-3.64,16.19-5.15,8.71-2.3,20.99-3.76,29.07.94,7.65,4.45,14.19,28.05,19.97,36.96,3.22,4.96,15.89,18.99,21.24,20.45,6.23,1.71,29.71-9.09,34.66-14.17,6.03-6.2,8.92-15.65,8.05-24.25ZM502.65,478.95c0,2.22-4.5,12.45-6.09,14.71-8.87,12.58-29.03,15.07-43.17,12.12,3.88,14.19,9.7,48.01,9.81,50.84.75,20.16,35.79,16.57,47.67,8.28,10.8-7.53,12.37-21.75,22.52-30.03,4.3-3.5,10.3-5.78,14.38-9.39,14.22-12.56,20.48-38.12,1.85-49.72-6.84-4.26-37.96-16.63-46.45-19.24-3.16-.97-.53,1.54-.53,1.63.32,6.87,0,13.91,0,20.8ZM463.03,306.87c17.86-3.19,46.31-6.6,63.02.88,2.69,1.2,4.07,3.35,6.7,4.29,13.27-6.34,7.9-20.19.52-29.02-5.73-6.86-15.34-11.09-20.59-18.82-9.19-13.52-6.31-34.5-28.23-36.39-19.84-1.71-66.61,34.99-66.25,38.92.55,5.37,23.39-5.59,24.63-9.52-2.31,12.57-10.95,22.87-9.93,23.19,7.04,2.21,4.82,14.49,2.41,19.55l-9.29,16.43c12.25-3.36,24.47-7.26,37.02-9.5ZM527.21,338.82c.25-6.74.14-13.69-6.28-17.19-13.11-7.16-48.53-4.48-63.42-1.67-9.86,1.86-19.31,6.03-29.31,7.38,9.95,14.26,35.11,23.7,25.06,45.3-5.67,12.18-31.2,9.57-31.6,13.25,23.22,25.84,50.31,36.63,71.59,1.55,4.63-7.64,7.14-19.85,13.08-25.79,9.14-9.14,20.19-4.01,20.89-22.84ZM628.28,338.54c.65-11.12-9.43-18.5-9.67-28.2-.29-11.78,9.75-23.36,8.84-36.1-.82-11.6-11.03-19.89-22.43-20.05-11-.16-11.79,6.35-18.18,12.25-10.45,9.64-20.87,15.91-34.92,19.29,5.5,10.25,9.07,22.17,1.12,32.28,0,1.06,15.38,4.04,18.08,4.89,16.04,5.06,34.84,15.39,41.12,31.71,8.04.1,15.6-8.38,16.05-16.07ZM595.64,466.84c-6.02,4.29-14.45,6.74-21.83,6.1,9.4,22.26,3.8,48.08-13.66,64.61-9.29,8.79-21.73,13.17-27.92,25.72l-9.87,8.18c16.43-1.1,32.11-7.24,45.89-15.95,21.03-13.29,12.92-15.68,22.18-33.66,4.57-8.88,14.07-15.36,18.94-24.85,6.03-11.74,13.13-30.66,10.24-43.58-10.8-3.52-16.83,8.34-23.97,13.43ZM432.87,118.46c-7.62-3.68-16.11-.44-21.09,5.77-3.7,4.62-12.62,23.98-10.77,29.38,6.53,6.58,16.45,2.46,24.44,2.94,11.88.72,24.17,8.98,30.34,18.92,2.57,4.14,5.52,16.67,9.64,15.65,11.23-2.76,19.58-13.74,19.47-25.29-.22-23.12-30.14-22.28-42.09-34.86-3.32-3.49-4.94-10.1-9.94-12.51ZM650.76,246.54c-5.25-14.25-12.46-13.3-19.83-22.87-8.49-11.04-8-27.69-23.19-32.64-15.36-5.01-21.32,3.83-26.27,16.94,14.19,3.27,21.75,19.08,17.53,32.85,21.75-4.08,43.83,17.24,41.6,38.88-.43,4.17-8.96,22.14-7.66,23.53,22.08-10.45,25.76-35.14,17.82-56.69ZM650.43,395.73c.44-4.27-.38-8.82.03-13.1,1.78-18.33,15.24-30.89,7.85-50.58-3.05-8.13-13.37-16.53-21.59-18.93-1.61-.47-1.86.09-1.62,1.61.83,5.28,5.42,12.49,6.3,18.89.49,3.55.73,9.39.31,12.88-1.23,10.08-13.71,14.8-13.17,27.31.33,7.64,3.24,14.61,1.94,22.76-2.87,17.99-23.69,25.88-24.91,44.59,25.4.08,42.4-21.54,44.87-45.44ZM570.2,148.64c-5.49-3.24-12.22-3.43-17.74-7.44-11.53-8.38-12.62-23.92-29.66-26.18-15-1.98-33.86,6.75-40.92,20.15-.21,5.87,16.11,11.92,14.19,20.27,16.91-7.01,25.97-12.91,44.85-7.09,20.98,6.46,34.07,25.56,31.79,47.6,14.7-9.81,11.97-38.76-2.52-47.3ZM408.62,290.06"/>
  <text class="cls-6" transform="translate(695.5 471.74)"><tspan class="cls-7" x="0" y="0">ME</tspan><tspan class="cls-4" x="341.04" y="0">MO</tspan><tspan class="cls-7" x="710.5" y="0">RIAL</tspan></text>
  <text class="cls-3" transform="translate(698.16 275.03)"><tspan class="cls-9" x="0" y="0">B</tspan><tspan class="cls-1" x="80.88" y="0">R</tspan><tspan class="cls-5" x="162.11" y="0">O</tspan><tspan class="cls-2" x="256.17" y="0">THE</tspan><tspan class="cls-9" x="510.21" y="0">R</tspan><tspan class="cls-2" x="600.47" y="0">S IN ARMS</tspan></text>
</svg>