<?xml version="1.0" encoding="UTF-8"?>
<svg id="Layer_2" data-name="Layer 2" xmlns="http://www.w3.org/2000/svg" xmlns:xlink="http://www.w3.org/1999/xlink" viewBox="0 0 846.86 840.4">
  <defs>
    <style>
      .cls-1 {
        fill: url(#BIA_Gradient);
      }
    </style>
    <linearGradient id="BIA_Gradient" data-name="BIA Gradient" x1="0" y1="420.2" x2="846.86" y2="420.2" gradientUnits="userSpaceOnUse">
      <stop offset="0" stop-color="#e22b2b"/>
      <stop offset=".37" stop-color="#e4382a"/>
      <stop offset=".56" stop-color="#ea5c25"/>
      <stop offset=".62" stop-color="#ec6824"/>
      <stop offset="1" stop-color="#ef7c22"/>
    </linearGradient>
  </defs>
  <g id="Edited_logo" data-name="Edited logo">
    <path class="cls-1" d="M424.15,145.13c-5.31,14.48,23.45,30.3,34.66,31.83,10.74,1.47,23.98-1.71,34.4.94,9.9,2.52,29.8,20.84,33.16,30.78,6.31,18.63,5,53.65-10.53,67.67-8.66,7.82-31.24,24.57-41.26,31.1-3.49,2.27-4.58,2.79-10.88,5.95-.41-13.01,15.99-35.32,15.99-35.32,0,0-23.41,13.24-26.95,30.28-4.22-4.65-6.99-25.48-29.49-25.48s-32.58,24.81-33.18,25.2c-13.29-19.63-32.31-28.44-34.21-30.21,4.43,7.36,18.51,23.81,22.98,34.91-21.57-2.68-28.74-2.13-16.06,15.74-15.15.22-45.76-13.65-47.96-16.81,3.13,13.43,24.05,35.62,24.05,35.62-9.45,0-13.17,10.85-12.77,19.06.77,15.57,15.32,35.44,15.32,43.23,0,8.51-8.57,16.59-15.1,25.5-10.41,14.19-27.91,47.21-5.49,65.23,14.24,11.44,54.22,19.59,64.64,16.66-7.14,24.98-16.73,48.36-18.48,75.71,0,0,36.06-43.99,38.52-41.22-3.55,20.53-2.16,26.03-2.04,46.98l20-41.94c3.32,5,13.37,22.67,20.49,41.41,1.47-4.89-3.43-46.21-3.43-46.21,0,0,29.9,32.54,34.04,43.88.85,2.34-7.87-64.13-16.38-78.94,22.53,21.91,37.91,48.62,71.36,53.96,9.2,1.47,29.03.18,35.92,6.15,9.1,7.9,13.92,46.76,11.85,58.86-8.13,47.63-58.51,23.87-89.57,33.26-17.88,5.4-30.08,28.09-48.41,34.81-7.76,2.84-12.77,10.37-12.09,18.6l.47,5.62c.58,6.97,7.25,11.84,14.04,10.17,5.62-1.38,11.02-3.92,15.94-6.71,10.44-5.93,32.74-31.86,41.3-31.04,1.97.19,3.13,1.04,4.38,2.48,5.81,6.71,16.63,61.79,16.81,72.4.15,8.49-1.59,26.97-3.93,34.91-3.09,10.5-6.94,22.97-17.38,27.17-35.28,14.18-55.04-26.83-101.89-4.47-56.33,26.88-124.62-31.91-128.3-40.04-13.31-29.37-3.5-39.67,9.43-64.31l48.47-73.51c-45.45,8.54-83.54,42.49-98.5,85.82-2.2,6.38-9.6,9.21-15.51,5.95-8.26-4.56-16.26-9.74-25.04-14.14-23.71-11.88-74.57-27.39-89.5-46.8-11.38-14.79-14.57-33.05-22.97-49.39-4.45-8.66-47.45-41.52-29.48-58.84-28.31-6.03-30.89-40.47-38.01-65.14-.83-2.88,1.92-5.47,4.75-4.49,59.5,20.55,120.83-15.79,144.31-71.73-2.6-2.45-41.23,23-47.07,26.11-23.86,12.71-50.98,24.13-78.3,26.02-20.88,1.45-29.02,3.61-31.08-19.36-.56-6.22.53-36.76,2-41.7,1.18-3.97,17.73-19.67,21.58-27.22,16.1-31.54-17.6-34.92-21.54-54.28-3.36-16.51-.57-64.13,4.19-80.86,6.79-23.85,32.96-60.9,54.85-71.19,2.41-1.13,3.27-4.1,7.07-4.86,23.54-4.72,70.79,29.02,88.34,44.53,9.28,8.21,16.7,18.12,25.25,26.92,1.6,1.65,2.2,3.19,5.01,2.55,10.33-56.95-50.63-95.96-99.49-107.46-2.42-.57-3.65-3.3-2.41-5.46,15.89-27.8,42.6-50.46,76.67-45.27-1.11-2.57-1.92-4.12-1.43-7.12,1.33-8.17,29.83-36.19,37.19-34.64,8.28,1.74,33.13,32.61,38.32,40.89,17.06,27.16,23.63,59.79,23.53,91.75,2.3,3.14,13.54-23.24,14.25-25.27,16.33-46.59,5.91-95.36-28.1-130.02-2.03-2.07-.77-5.59,2.11-5.93,4.1-.48,8.23-.67,12.16-2.4,7.59-3.34,16.23-14.51,24.26-19.49,33.74-20.95,81.19-13.04,116.57,5.2,11.96,6.17,26.03,7.12,38.53,2.13.07-.03.15-.06.22-.09,14.47-5.83,26.05-16.83,42.84-14.16,14.9,2.37,28.76,23.31,43.01,29.34,25.78,10.9,46.27-6.48,68.17,21.02,17.74,22.27-1.61,23.79-16.02,36.17-9.79,8.41-17.52,24.19-32,20.27-19.92-5.4-23.74-21.41-36.3-32.69-11.39-10.23-26.58-8.23-40.28-3.6-33.01,11.15-44.54,69.05-44.54,69.05ZM588.5,577.32c34.6,7.75,87.13,52.26,122.16,46.98,8.62-1.3,24.44-10.27,29.57-17.54,10.26-14.55,3.11-30.28,13.01-45.89,10.6-16.7,31.07-28.17,28.66-52.29-3.6-36.21-77.64-76.28-111.01-80.6-4.54,1.28-1.1,11.31-1.77,16.73-4.66,37.41-37.44,31.74-50.07,61.07-5.19,12.05-5.38,23.87-14.15,34.65-5.67,6.96-15.78,13.89-24.12,17.14l7.72,19.76ZM733.78,277.22c-1.8-17.78-22.07-30.47-30.61-45.1-13.31-22.83-16.05-58.98-45.15-69.27-17.53-6.2-39.54.49-53.69,11.86-12.68,10.19-9.73,24.28-19.41,34.43-4.34,4.55-58.75,36.53-49.69,45.37,8.68-.48,16.08-5.59,24.88-7.92,13.39-3.53,32.26-5.78,44.69,1.45,11.76,6.84,21.82,43.11,30.69,56.81,4.94,7.63,24.43,29.18,32.64,31.43,9.58,2.63,45.67-13.97,53.27-21.78,9.27-9.53,13.71-24.06,12.37-37.28ZM604.22,652.47c0,3.41-6.91,19.13-9.36,22.61-13.63,19.34-44.62,23.16-66.35,18.63,5.97,21.81,14.91,73.79,15.08,78.14,1.16,30.99,55.01,25.46,73.27,12.73,16.6-11.57,19.01-33.44,34.62-46.15,6.61-5.38,15.83-8.89,22.1-14.43,21.85-19.3,31.48-58.58,2.85-76.42-10.52-6.55-58.35-25.57-71.4-29.57-4.86-1.49-.81,2.37-.81,2.5.49,10.57,0,21.38,0,31.97ZM543.33,387.98c27.45-4.9,71.18-10.14,96.86,1.36,4.13,1.85,6.25,5.15,10.3,6.59,20.4-9.74,12.15-31.03.8-44.61-8.81-10.54-23.58-17.05-31.65-28.93-14.12-20.78-9.69-53.03-43.38-55.93-30.5-2.62-102.38,53.78-101.83,59.82.85,8.26,35.95-8.59,37.85-14.64-3.55,19.32-16.82,35.15-15.27,35.64,10.82,3.4,7.41,22.27,3.7,30.05l-14.27,25.25c18.82-5.17,37.6-11.16,56.89-14.6ZM641.97,437.08c.39-10.36.21-21.03-9.65-26.42-20.16-11.01-74.59-6.88-97.48-2.57-15.15,2.85-29.68,9.26-45.05,11.34,15.29,21.92,53.96,36.42,38.52,69.63-8.71,18.73-47.95,14.71-48.57,20.37,35.68,39.72,77.33,56.29,110.03,2.38,7.12-11.74,10.97-30.51,20.1-39.64,14.05-14.05,31.03-6.17,32.11-35.1ZM797.31,436.67c1-17.08-14.5-28.43-14.86-43.34-.44-18.11,14.98-35.9,13.59-55.49-1.27-17.82-16.95-30.56-34.48-30.82-16.91-.24-18.12,9.75-27.95,18.82-16.06,14.82-32.08,24.45-53.67,29.64,8.45,15.75,13.95,34.07,1.72,49.62.01,1.63,23.65,6.2,27.79,7.51,24.66,7.77,53.55,23.65,63.2,48.73,12.36.16,23.97-12.87,24.66-24.69ZM747.14,633.86c-9.25,6.59-22.21,10.36-33.55,9.38,14.45,34.21,5.84,73.9-20.99,99.3-14.27,13.51-33.4,20.24-42.92,39.54l-15.17,12.57c25.25-1.69,49.36-11.13,70.53-24.51,32.32-20.43,19.86-24.1,34.08-51.74,7.03-13.65,21.63-23.61,29.12-38.19,9.27-18.05,20.19-47.13,15.73-66.99-16.61-5.41-25.87,12.82-36.84,20.64ZM496.98,98.4c-11.72-5.66-24.76-.67-32.42,8.87-5.69,7.1-19.4,36.86-16.56,45.15,10.04,10.11,25.29,3.78,37.56,4.52,18.26,1.1,37.14,13.81,46.64,29.08,3.96,6.36,8.48,25.61,14.82,24.06,17.26-4.24,30.1-21.12,29.93-38.88-.34-35.54-46.32-34.24-64.69-53.57-5.1-5.36-7.59-15.52-15.27-19.23ZM831.86,295.26c-8.07-21.9-19.15-20.44-30.47-35.15-13.05-16.97-12.29-42.56-35.65-50.17-23.6-7.7-32.77,5.88-40.38,26.04,21.81,5.02,33.43,29.32,26.94,50.5,33.44-6.28,67.37,26.5,63.93,59.76-.66,6.42-13.77,34.03-11.77,36.16,33.94-16.06,39.6-54.01,27.39-87.13ZM831.36,524.56c.68-6.57-.59-13.56.05-20.14,2.73-28.17,23.43-47.47,12.06-77.74-4.69-12.5-20.55-25.41-33.19-29.09-2.47-.72-2.85.14-2.49,2.48,1.27,8.11,8.34,19.19,9.68,29.04.75,5.46,1.13,14.43.47,19.79-1.89,15.49-21.07,22.75-20.25,41.98.5,11.74,4.98,22.46,2.98,34.99-4.41,27.65-36.41,39.78-38.29,68.54,39.04.12,65.16-33.11,68.96-69.85ZM708.05,144.78c-8.44-4.98-18.78-5.27-27.27-11.44-17.72-12.87-19.39-36.77-45.58-40.23-23.05-3.05-52.04,10.38-62.89,30.98-.32,9.03,24.75,18.32,21.82,31.15,26-10.77,39.92-19.84,68.94-10.9,32.25,9.93,52.36,39.29,48.86,73.15,22.6-15.07,18.4-59.57-3.87-72.71Z"/>
  </g>
</svg>