<?xml version="1.0" encoding="UTF-8"?>
<svg id="Layer_1" data-name="Layer 1" xmlns="http://www.w3.org/2000/svg" viewBox="0 0 38.55 38.55">
  <defs>
    <style>
      .cls-1 {
        fill: #ef7c22;
      }

      .cls-2, .cls-3 {
        fill: none;
      }

      .cls-4 {
        fill: #e8564b;
      }

      .cls-3 {
        stroke: #ef7c22;
        stroke-miterlimit: 10;
        stroke-width: .53px;
      }
    </style>
  </defs>
  <circle class="cls-3" cx="19.28" cy="19.28" r="19.01"/>
  <g>
    <path class="cls-2" d="M28.71,23.48l.43.14c-.59-.56-1.4-1.05-2.2-1.18l1.76,1.03Z"/>
    <path class="cls-1" d="M20.96,30.84c-.33-.37-.59.11-1.05,0,0,0-.06.04-.15-.11-.04-.07-.01.71-.05,1.04l.07,2.5c0,.28.09.64.36.73.51.16,1.56.31,2.31.15.92-.2,1.44-1.67,1.44-2.55,0-.41-.73-3.11-.96-3.25-.54-.34-1.94.9-1.97,1.48Z"/>
    <path class="cls-1" d="M33.12,22.93c-.04-.8-1.09-2.08-1.73-2.52-.42-.28-2.44-1.17-2.78-.92-.11.5-.36,1.15,0,1.56-.34-.04-.6.15-.84.38l.84.48c-.38-.02-1.1-.39-1.44-.19-.06.04-.51,1.01-.53,1.13-.06.43.79.56.93.99l-1.1-.64-.34.48.18.27c-.4-.08-.97.18-.73.64l-.42-.05.69,1c1.25.27,3.36,2.01,4.57,1.81.34-.06,1.03-.41,1.15-.75.06-.19-.05-.32-.03-.43.01-.08.17-.07.18-.1.09-.19,0-.43.06-.65.22-.88,1.41-1.32,1.34-2.49ZM28.71,23.48l-1.76-1.03c.8.13,1.61.62,2.2,1.18l-.43-.14Z"/>
    <path class="cls-1" d="M22.01,29.14c1-.44,2.7.33,3.27-.73.45-.84.21-1.94-.15-2.78-.38-.89-.78-.97-1.71-.94,0,0-.69-.4-.99-.63-.08.1.32.97.37,1.17.02.11.14.35-.06.33-.3-1-.57-1.92-1.41-2.57l.65,2.44-.08.45c-.43-2.34-1.06-2.36-1.06-2.36,0,0,.04.68-.12,2.34-.61-2.45-.49-.51-.71.02-.02.05-.27.58-.38.88l.05,3.64c.97.4,1.62-.95,2.31-1.25Z"/>
    <path class="cls-1" d="M29.32,30.91c.67-.86.97-2.38.03-3.12l-3.63-1.69.52.64-.42-.11c.44,1.57-.46,3.18-2.2,2.79l.21.69c-.04.17-.31-.5-.19.08.14.68.49,1.28.59,2.07.11.82-.3,1.43.82,1.62.76.13,1.65,0,2.18-.61.31-.36.52-1.06.82-1.36.35-.36.83-.45,1.26-1.01Z"/>
    <path class="cls-1" d="M24.73,11.97c-.16.43-.97.54-.79,1.07l1.41-.96-1.15,1.07,1.25-.75c.19.2-.72.58-.73.75l1.78-.53-.73.48c-.01.63,1.79-.78,2.09-.59l-1.46.75c-.12.17.41.62.63.54-.31.29.04,1.21.22,1.54.12.21,1.1,1.13,1.29,1.14,1.07-.32,2.57-.79,2.76-2.11.15-1.06-.79-1.44-1.19-2.27-.31-.64-.3-1.37-.69-1.97-.72-1.12-2.07-1.16-3.05-.37-.63.5-.52,1-.96,1.49-.32.36-1.52.88-1.63,1.12-.03.06-.02.18.05.16l.89-.53Z"/>
    <path class="cls-1" d="M20.54,15.08l.94-1.61-.94,2.14c.22.05.24-.12.34-.24.26-.33.45-.77.69-1.11.09-.13.11-.3.33-.25l-.73,1.39c.32-.29.8-.55,1.09-.86.12-.12.14-.39.26-.47.06-.04.24.04.39-.03.7-.3.65-2.16.37-2.79-.13-.29-.87-.97-1.17-1.05-.46-.12-.94.02-1.39-.07-.44-.09-.8-.46-1.18-.76v4.72c.54.31,1.14.72,1,.99Z"/>
    <path class="cls-1" d="M23.05,14.97c0,.19-1.06.51-.84.75l.73-.43c.05.33-.34.26-.47.54-.06.14-.06.28-.05.43l.94-.32c-.13.22-.47.24-.68.43-.27.24-.44.71-.47,1.07.06.07.52-.27.52,0-.37.08-.58.36-.52.75l.73-.16c-.26.31-.91.31-.94.8l2.27-.84.14.2-.21.11c1.24-.04,3.09-.54,3.93.64.87-.17.61-1.21.3-1.81-.34-.65-.97-.85-1.35-1.41-.44-.64-.42-1.62-1.07-2.01-1.2-.73-3.2.85-4.12,1.65l1.15-.37Z"/>
    <path class="cls-1" d="M22.07,23.14c1.42,1.46,2.69,1.82,3.89-.16.25-.41.4-1.06.64-1.38.6-.77,1.46-.25,1.26-1.93-.04-.33-.07-.44-.36-.6-.85-.45-2.69-.24-3.64-.07-.56.1-1.08.37-1.65.4.51.8,1.64,1.18,1.57,2.29-.07,1.05-1.13.96-1.88,1.14-.05.21.08.21.17.3Z"/>
    <path class="cls-1" d="M19.81,9.08c.18-.03.26,0,.31-.13.1-.28.17-1.24.55-1.72.49-.61,1.28-.92,1.78-.81.47.11.7.7,1.02.99.2.18.96.62,1.19.6.34-.14.49-.53.79-.81.66-.61,1.44-.7.63-1.82-.8-1.1-1.55-.45-2.47-.8-.88-.34-1.34-1.71-2.59-.96-1.43.86-1.26,3.35-1.49,4.93v.35c.11.13.16.15.27.16Z"/>
    <path class="cls-1" d="M33.62,20.27c.15-.8-.48-1.2-.51-1.82-.03-.6.57-1.58.5-2.21-.1-.85-1.21-1.49-2-1.24-.16.05-.74.93-1.08,1.14-.46.29-1.21.42-1.71.66.16.29.69-.08.94,0-.15.41-.85,0-.84.53l1.46-.21-1.36.43c-.03.14.01.39.16.43h1.62c0,.07-.14.21-.16.21h-1.52s-.16.42,0,.49l.74.05c.11.45-.56.02-.63.32,1.31.22,2.8.95,3.35,2.25.4-.08.97-.63,1.04-1.02Z"/>
    <path class="cls-1" d="M31.02,27.59c-.3.19-.64.26-.98.34.34,1.35.24,2.63-.78,3.64-.35.35-.78.41-1.1.8-.12.15-.83,1.35-.73,1.45,1.06,0,2.31-.47,3.17-1.09.76-.54.55-.99.87-1.69.26-.56.95-1.05,1.17-1.7.25-.75.2-1.95-.09-2.69-.88-.27-.93.56-1.52.93Z"/>
    <path class="cls-1" d="M25.56,10.09c.23-1.59-1.43-1.62-2.29-2.36-.36-.31-.48-.81-1.01-.9-.62-.1-1.28.41-1.55.97-.12.25-.43,1.43-.37,1.63.12.42,1.14.26,1.49.3,1.04.13,1.75,1.01,1.95,2.02.66-.25,1.66-.89,1.77-1.67Z"/>
    <path class="cls-1" d="M31.63,14.54c1.25-.23,2.4.78,2.3,2.09-.03.46-.28.88-.31,1.34.2.23,1.13-1.19,1.2-1.4.21-.58.24-1.48.05-2.08-.22-.68-.74-.76-1.09-1.25-.63-.87-.42-1.8-1.84-2.19-.72-.2-1.06.69-1.24,1.27.63.62,1.05,1.28.93,2.22Z"/>
    <path class="cls-1" d="M34.57,18.35l-.66.68c.33.75.65,1.3.15,2.09-.15.24-.72.63-.77.83-.05.2.25.65.29.95.18,1.47-1.42,1.91-1.46,3.26,1.1.16,2.43-.99,2.68-2.03.13-.57.07-1.3.17-1.86.09-.49.42-.97.49-1.54.11-.92.03-1.95-.9-2.38Z"/>
    <path class="cls-1" d="M25.19,8.11c-.13.26.86.94.69,1.39.43-.18.73-.53,1.23-.62,1.29-.22,2.24.15,2.8,1.37.1.22.41,1.5.52,1.5.88-.58.72-2.5-.13-2.97-.28-.16-.68-.17-.97-.4-.9-.73-.65-1.73-2.36-1.55-.54.06-1.55.82-1.78,1.29Z"/>
  </g>
  <path class="cls-4" d="M19.12,5.16c0-.61-.35-1.16-.91-1.42-1.24-.57-3.47-1.26-5,.23-.67.65-.99.74-1.33.89,0,0,.79,1.8.97,2.51.39,1.49.04,2.65-.26,3.13,0,0-.18-1.35-.31-2.16-.12-.74-.81-2.05-1.08-2.41s-.45-.78-.95-.42-1.58,1.17-1.26,1.63c0,0-1.86-.46-3.08,1.98.68-.2,3.46,1.38,3.46,2.97l-3.3-2.47s-.29-.29-.51,0-.61.96-.61.96c0,0-2.13,1.68-2.12,3.79s-.07,1.85.03,2.21,1.02.75.96,1.48-1.07,1.44-1.02,1.66-.22,1.97.18,2.23c1.67.19,3.14-.45,4.4-1.02.09-.04.2-.06.17.08,0,0-1.08,2.24-4.61,1.61,0,0,.45,1.77.63,2.08s.43.73,1,.74c0,0-.43.27-.25.4s1.13.23,1.13.23l-.66.31s1.03,1.46,1.15,1.98.57,1.43,1.09,1.72,3.34,1.5,3.55,1.62.6.5.89.52c1.45-1.96,3.26-2.19,3.36-2.01,0,0-1.93,1.04-2.13,2.27.06.32.41,1.77,1.69,2.17s2.03.51,2.13.69,1.54.6,2.72-.53v-8.06s-.02-.43-.19-.72c-.12-.21-.25-.99-.32-1.44-.01-.08-.12-.09-.15-.01l-.57,1.63c.06-.98.13-1.94.3-2.54.01-.04-.03-.07-.06-.05-.47.26-1.02,1.58-1.29,2.51-.12-.97.33-2.01.74-3.05-.83.8-1.55,1.9-1.68,2.87l.27-3.05-.07-.12c-3.72.3-1.36-2.19-.88-2.82.23-.3.22-.61.22-.61,0,0-2.79.44-2.83.33-.03-.08-.26-.13-.09-.21.64-.3,2.74-.58,2.74-.62,0-.21,0-.43-.02-.64,0-.02-.76-.16-.76-.16,0,0-.02-.08.03-.08.14,0,.72.09.72.06-.01-.2-.03-.41-.05-.61,0-.04-.6-.18-.43-.2.1-.01.42.08.42.07-.06-.58.56-.87.56-.87-.51-.42-.87-.9-1.06-1.44.15.41,1.09.91,1.59,1.08.07.02.06-.31.12-.27,0,0-.75-1.28-.64-1.73.1.29.52.28.64.49.24.41.28,1.2.68,1.23l-.2-1.89s.55,1.88.65,1.88.04-.34.04-.34l-.31-1.73c.19.49.37,1.08.69,1.27.22-.48.65-.82,1.11-.91l-.03-8.87Z"/>
</svg>