<?xml version="1.0" encoding="UTF-8"?>
<svg id="Layer_2" data-name="Layer 2" xmlns="http://www.w3.org/2000/svg" xmlns:xlink="http://www.w3.org/1999/xlink" viewBox="0 0 971.02 229.24">
  <defs>
    <style>
      .cls-1 {
        letter-spacing: .05em;
      }

      .cls-2 {
        fill: #e22b2b;
        font-family: Nicholas, Nicholas;
        font-size: 139.42px;
      }

      .cls-3 {
        letter-spacing: .06em;
      }

      .cls-4 {
        letter-spacing: .05em;
      }

      .cls-5 {
        letter-spacing: -.03em;
      }

      .cls-6 {
        letter-spacing: .08em;
      }

      .cls-7 {
        letter-spacing: .08em;
      }

      .cls-8 {
        letter-spacing: .07em;
      }

      .cls-9 {
        letter-spacing: .05em;
      }

      .cls-10 {
        letter-spacing: .05em;
      }

      .cls-11 {
        fill: url(#linear-gradient);
      }

      .cls-12 {
        fill: #ef7c22;
        font-family: Nicholas-Bold, Nicholas;
        font-size: 72.44px;
        font-weight: 700;
      }
    </style>
    <linearGradient id="linear-gradient" x1="0" y1="103.98" x2="209.55" y2="103.98" gradientUnits="userSpaceOnUse">
      <stop offset="0" stop-color="#e22b2b"/>
      <stop offset=".38" stop-color="#e3332a"/>
      <stop offset=".63" stop-color="#ed7223"/>
      <stop offset="1" stop-color="#ef7c22"/>
    </linearGradient>
  </defs>
  <g id="Layer_6" data-name="Layer 6">
    <text class="cls-12" transform="translate(224.4 81.65)"><tspan class="cls-4" x="0" y="0">B</tspan><tspan class="cls-5" x="49.33" y="0">R</tspan><tspan class="cls-9" x="98.89" y="0">O</tspan><tspan class="cls-8" x="156.26" y="0">THE</tspan><tspan class="cls-1" x="311.22" y="0">R</tspan><tspan class="cls-3" x="366.28" y="0">S IN ARMS</tspan></text>
    <text class="cls-2" transform="translate(222.77 202.19)"><tspan class="cls-7" x="0" y="0">ME</tspan><tspan class="cls-10" x="209.13" y="0">MO</tspan><tspan class="cls-6" x="435.69" y="0">RIAL</tspan></text>
    <path class="cls-11" d="M104.96,35.91c-1.31,3.58,5.8,7.5,8.58,7.88s5.93-.42,8.51.23,7.37,5.16,8.21,7.62c1.56,4.61,1.24,13.27-2.61,16.74-2.14,1.94-7.73,6.08-10.21,7.69-.86.56-1.13.69-2.69,1.47-.1-3.22,3.96-8.74,3.96-8.74,0,0-5.79,3.28-6.67,7.49-1.04-1.15-1.73-6.3-7.3-6.3s-8.06,6.14-8.21,6.24c-3.29-4.86-7.99-7.04-8.47-7.48,1.1,1.82,4.58,5.89,5.69,8.64-5.34-.66-7.11-.53-3.97,3.9-3.75.05-11.32-3.38-11.87-4.16.77,3.32,5.95,8.81,5.95,8.81-2.34,0-3.26,2.68-3.16,4.72.19,3.85,3.79,8.77,3.79,10.7,0,2.11-2.12,4.1-3.74,6.31-2.58,3.51-6.91,11.68-1.36,16.14,3.52,2.83,13.42,4.85,16,4.12-1.77,6.18-4.14,11.97-4.57,18.73,0,0,8.92-10.89,9.53-10.2-.88,5.08-.54,6.44-.51,11.62l4.95-10.38c.82,1.24,3.31,5.61,5.07,10.25.36-1.21-.85-11.43-.85-11.43,0,0,7.4,8.05,8.42,10.86.21.58-1.95-15.87-4.05-19.53,5.58,5.42,9.38,12.03,17.66,13.35,2.28.36,7.18.04,8.89,1.52,2.25,1.95,3.44,11.57,2.93,14.57-2.01,11.79-14.48,5.91-22.16,8.23-4.42,1.34-7.44,6.95-11.98,8.61-1.92.7-3.16,2.57-2.99,4.6l.12,1.39c.14,1.73,1.79,2.93,3.47,2.52,1.39-.34,2.73-.97,3.94-1.66,2.58-1.47,8.1-7.88,10.22-7.68.49.05.77.26,1.08.61,1.44,1.66,4.11,15.29,4.16,17.92.04,2.1-.39,6.67-.97,8.64-.76,2.6-1.72,5.68-4.3,6.72-8.73,3.51-13.62-6.64-25.21-1.11-13.94,6.65-30.84-7.9-31.75-9.91-3.29-7.27-.87-9.82,2.33-15.91l11.99-18.19c-11.25,2.11-20.67,10.51-24.37,21.24-.55,1.58-2.38,2.28-3.84,1.47-2.04-1.13-4.02-2.41-6.2-3.5-5.87-2.94-18.45-6.78-22.15-11.58-2.82-3.66-3.6-8.18-5.68-12.22-1.1-2.14-11.74-10.27-7.3-14.56-7.01-1.49-7.64-10.01-9.41-16.12-.21-.71.47-1.35,1.18-1.11,14.72,5.08,29.9-3.91,35.71-17.75-.64-.61-10.2,5.69-11.65,6.46-5.9,3.15-12.61,5.97-19.38,6.44-5.17.36-7.18.89-7.69-4.79-.14-1.54.13-9.1.49-10.32.29-.98,4.39-4.87,5.34-6.73,3.98-7.8-4.36-8.64-5.33-13.43-.83-4.08-.14-15.87,1.04-20.01,1.68-5.9,8.16-15.07,13.57-17.62.6-.28.81-1.01,1.75-1.2,5.83-1.17,17.52,7.18,21.86,11.02,2.3,2.03,4.13,4.48,6.25,6.66.4.41.55.79,1.24.63,2.56-14.09-12.53-23.74-24.62-26.59-.6-.14-.9-.82-.6-1.35,3.93-6.88,10.54-12.49,18.97-11.2-.28-.64-.48-1.02-.35-1.76.33-2.02,7.38-8.96,9.2-8.57,2.05.43,8.2,8.07,9.48,10.12,4.22,6.72,5.85,14.8,5.82,22.7.57.78,3.35-5.75,3.53-6.25,4.04-11.53,1.46-23.6-6.95-32.17-.5-.51-.19-1.38.52-1.47,1.01-.12,2.04-.17,3.01-.59,1.88-.83,4.02-3.59,6-4.82,8.35-5.18,20.09-3.23,28.85,1.29,2.96,1.53,6.44,1.76,9.53.53.02,0,.04-.01.05-.02,3.58-1.44,6.45-4.17,10.6-3.5,3.69.59,7.12,5.77,10.64,7.26,6.38,2.7,11.45-1.6,16.87,5.2,4.39,5.51-.4,5.89-3.96,8.95-2.42,2.08-4.34,5.99-7.92,5.02-4.93-1.34-5.87-5.3-8.98-8.09-2.82-2.53-6.58-2.04-9.97-.89-8.17,2.76-11.02,17.09-11.02,17.09ZM145.62,142.86c8.56,1.92,21.56,12.93,30.23,11.63,2.13-.32,6.05-2.54,7.32-4.34,2.54-3.6.77-7.49,3.22-11.35,2.62-4.13,7.69-6.97,7.09-12.94-.89-8.96-19.21-18.88-27.47-19.95-1.12.32-.27,2.8-.44,4.14-1.15,9.26-9.26,7.85-12.39,15.11-1.28,2.98-1.33,5.91-3.5,8.57-1.4,1.72-3.9,3.44-5.97,4.24l1.91,4.89ZM181.57,68.6c-.44-4.4-5.46-7.54-7.57-11.16-3.29-5.65-3.97-14.59-11.17-17.14-4.34-1.53-9.78.12-13.29,2.93-3.14,2.52-2.41,6.01-4.8,8.52-1.07,1.13-14.54,9.04-12.29,11.23,2.15-.12,3.98-1.38,6.16-1.96,3.31-.87,7.98-1.43,11.06.36,2.91,1.69,5.4,10.67,7.59,14.06,1.22,1.89,6.05,7.22,8.08,7.78,2.37.65,11.3-3.46,13.18-5.39,2.29-2.36,3.39-5.95,3.06-9.22ZM149.51,161.45c0,.84-1.71,4.73-2.32,5.59-3.37,4.78-11.04,5.73-16.42,4.61,1.48,5.4,3.69,18.26,3.73,19.34.29,7.67,13.61,6.3,18.13,3.15,4.11-2.86,4.7-8.27,8.57-11.42,1.64-1.33,3.92-2.2,5.47-3.57,5.41-4.78,7.79-14.5.7-18.91-2.6-1.62-14.44-6.33-17.67-7.32-1.2-.37-.2.59-.2.62.12,2.61,0,5.29,0,7.91ZM134.44,96c6.79-1.21,17.61-2.51,23.97.34,1.02.46,1.55,1.27,2.55,1.63,5.05-2.41,3.01-7.68.2-11.04-2.18-2.61-5.83-4.22-7.83-7.16-3.49-5.14-2.4-13.12-10.74-13.84-7.55-.65-25.33,13.31-25.2,14.8.21,2.04,8.9-2.13,9.37-3.62-.88,4.78-4.16,8.7-3.78,8.82,2.68.84,1.83,5.51.92,7.44l-3.53,6.25c4.66-1.28,9.31-2.76,14.08-3.61ZM158.85,108.16c.1-2.56.05-5.2-2.39-6.54-4.99-2.72-18.46-1.7-24.12-.64-3.75.71-7.34,2.29-11.15,2.81,3.78,5.42,13.35,9.01,9.53,17.23-2.16,4.63-11.86,3.64-12.02,5.04,8.83,9.83,19.14,13.93,27.23.59,1.76-2.9,2.71-7.55,4.97-9.81,3.48-3.48,7.68-1.53,7.94-8.68ZM197.29,108.05c.25-4.23-3.59-7.03-3.68-10.72-.11-4.48,3.71-8.88,3.36-13.73-.31-4.41-4.19-7.56-8.53-7.63s-4.48,2.41-6.92,4.66c-3.97,3.67-7.94,6.05-13.28,7.34,2.09,3.9,3.45,8.43.42,12.28,0,.4,5.85,1.54,6.88,1.86,6.1,1.92,13.25,5.85,15.64,12.06,3.06.04,5.93-3.19,6.1-6.11ZM184.88,156.85c-2.29,1.63-5.5,2.56-8.3,2.32,3.58,8.46,1.44,18.29-5.19,24.57-3.53,3.34-8.27,5.01-10.62,9.78l-3.75,3.11c6.25-.42,12.21-2.75,17.45-6.07,8-5.05,4.91-5.96,8.43-12.8,1.74-3.38,5.35-5.84,7.21-9.45,2.29-4.47,4.99-11.66,3.89-16.58-4.11-1.34-6.4,3.17-9.12,5.11ZM122.98,24.35c-2.9-1.4-6.13-.17-8.02,2.2-1.41,1.76-4.8,9.12-4.1,11.17,2.48,2.5,6.26.93,9.29,1.12,4.52.27,9.19,3.42,11.54,7.2.98,1.57,2.1,6.34,3.67,5.95,4.27-1.05,7.45-5.23,7.41-9.62-.08-8.79-11.46-8.47-16.01-13.26-1.26-1.33-1.88-3.84-3.78-4.76ZM205.84,73.06c-2-5.42-4.74-5.06-7.54-8.7-3.23-4.2-3.04-10.53-8.82-12.41s-8.11,1.46-9.99,6.44c5.4,1.24,8.27,7.26,6.67,12.5,8.27-1.55,16.67,6.56,15.82,14.79-.16,1.59-3.41,8.42-2.91,8.95,8.4-3.97,9.8-13.36,6.78-21.56ZM205.72,129.8c.17-1.62-.14-3.35.01-4.98.68-6.97,5.8-11.75,2.99-19.24-1.16-3.09-5.08-6.29-8.21-7.2-.61-.18-.71.04-.62.61.31,2.01,2.06,4.75,2.4,7.18.19,1.35.28,3.57.12,4.9-.47,3.83-5.21,5.63-5.01,10.39.12,2.91,1.23,5.56.74,8.66-1.09,6.84-9.01,9.84-9.47,16.96,9.66.03,16.12-8.19,17.06-17.28ZM175.21,35.83c-2.09-1.23-4.65-1.3-6.75-2.83-4.38-3.19-4.8-9.1-11.28-9.96-5.7-.75-12.88,2.57-15.56,7.66-.08,2.23,6.13,4.53,5.4,7.71,6.43-2.67,9.88-4.91,17.06-2.7,7.98,2.46,12.96,9.72,12.09,18.1,5.59-3.73,4.55-14.74-.96-17.99Z"/>
  </g>
</svg>