<?xml version="1.0" encoding="UTF-8"?>
<svg id="Layer_1" data-name="Layer 1" xmlns="http://www.w3.org/2000/svg" viewBox="0 0 2912 851.99">
  <path d="M2905.98,503.99c-6.23-7.61-13.28.45-13.93,0-.56-.38-.15-6.25-5.03-6.03-1.95.09-.47,2.89-1.28,3.57-.96.81-23.17,3.84-24.42,3.79-6.07-.22-10.61-4.93-14.44-5.31-12.71-1.25-3.98-1.41-10.14-3.68-9.34-3.44-28.14,1.23-33.58-2.56-2.21-1.54-2.89-5.6-4.47-5.92-4.5-.91-6.89,2.71-9.67,3.18-2.09.36-5.04-1.46-7.63-1.11-1.1.15-13.29,15.96-11.39-3.92l-7.98,2-.03-6.03c-3.48,3.62-10.81,2.85-13.48,4.56-1.9,1.22-5.44,12.33-6.55,1.49-.76-.72-3.77,3.66-6.84,3.86-20.1,1.29-11.57-33.36-11.02-44.79.33-6.69-2.18-13.98-1.94-18.25.25-4.59,9.96-10.48,10.02-21.83.06-10.57-9.09-20.52-8.4-30.03.33-4.5,6.22-4.52,6.22-5.98v-40c0-.69,2.63-2.95,2.02-5,14.94,14.1,22.35-4.78,19.12-20.16-.7-3.32-3.88-6.41-4.17-8.82-.66-5.37,2.64-15.39,1.11-21.7-.74-3.08-7.48-1.59-8.18-4.66-.59-2.6.61-6.4-.05-9.48-3.63-16.83.18-32.35-5.69-48.35-1.39-3.8-6.08-6.44-6.15-9.78-.02-.89,4.38-16.45,4.89-17.18,1.73-2.45,6.6-1.47,7.12-1.9,1.08-.9-4.98-22.64-9.51-26.03-8.73-6.53-24.59-7.45-32.57,1-6.31,6.68-4.54,20.2-15.94,17.06,1.93,10.65,15.29.69,15.77,16.94.52,17.49-17.08,7.48-23.29,13.56-3.44,3.37-10.84,17.99-14.5,22.49-10.06,12.41-25.64,21.92-26.06,40.1-.17,7.14,5.61,32.62,8.48,39.5,2.73,6.55,9.31,8.57,9.67,12.38.88,9.38-11.1,38.26-7.84,47.74,2,5.8,19.43,4.94,21.95,8.55,1.93,2.76,3.18,17.96,4.37,23.18.9,3.97,4.77,8.01,5.02,10.89.36,4.21-7.51,23.46-7.55,31.67-.07,12.83,8.13,34.11,3.67,47.69-3.31,10.08-16.2-4.09-21.04-4.34-.72-.04-8.21,1.89-13.64,2.06-4.65.15-13.24,0-17.54-.78-10.23-1.84-11.46-15.03-9.48-23.62-1.34-1.14-14.16,7.53-15.95-1.48-.97-4.89,1.63-9.28,1.23-13.23-1.96-19.53-.76-31.27-1.19-50.39-.17-7.88-4.88-19.23-1.1-26.94,1.37-2.79,8.19-5.33,11.07-8.93,3.84-4.81,13.05-37.84,13.46-44.54.64-10.44-14.89-58.98-21.73-67.3-4.74-5.76-23.86-8.85-27.01-21.12-.67-2.59,4.73-4.97,5.39-11.03,1.71-15.88-10.08-30.3-26.7-26.68-9.38,2.04-12.48,15.9-23.45,13.63-1.22,6.24,8.31,7.2,9.68,11.31.35,1.05,2.15,19.97,1.48,20.78-1.85,2.24-6.54,1.42-9.08,3-9.52,5.92-31.3,34.21-38.53,45.47-3.54,5.52-8.55,11.42-10.2,17.8-3.85,14.89-4.01,52.15.75,66.53,2.11,6.38,11.84,21.33,19.05,15.29,5.55-4.65.62-15.74.71-23.18.09-7.4,2.16-13.75,2.15-21,2.67,5.52,13.41,5.47,13.99,6.01,3.65,3.41-13.75,31.29,4.01,25.98,1.01,18.29.84,36.68,2,54.99.32,5.07,2.99,9.74,3.28,14.29.88,13.64-10.2,23.04-16.39,8.76-1.75-4.05,1.04-10.27-7.63-7.94-1.85.5-1.05,3.44-1.42,3.71-4.04,2.93-3.53-2.68-5.25-3.82-3.95-2.63-15.47-7.12-20.11-7.75-3.56-.48-2.62,7.68-6.49,3.77-.61-.62-2.09-12.92-6.04-15.98l-1.99,8c-11.39-5.32-10,4.95-23.01,5.99-6.3.51-43.77-5.38-47.82-8.15-2.88-1.97-3.25-3.36-3.25-6.74-.03-11.92,8.08-29.35,8.25-42.12.09-6.73-3.37-11.18-3.4-13.99-.05-4.99,7.15-27.09,7.41-36.01.3-10.22-7.57-27.46-6.32-35.87.33-2.23,6.41-.14,7.91-4.37,3.54-9.96-4.47-25.43-3.27-31.53,1.21-6.15,20.48-24.31,17.38-36.09-8.06-16.13-5.95-42.43-15.92-58.43-.32-.51,1.5-14.51,3.91-33.22.12-.9,3.61-.43,3.86-2.22.3-2.11-3.3-2.15-3.2-2.97,3.22-25.18,7.18-56.91,8.51-76.26.3-4.31-3.15.43-3.15.43,0,0,.94,18.47-2.89,16.77-2-1.99-10.34,79.79-19.36,88.51-8.9-4.34-19.07-2.66-20.69-13.71-.4-2.75,1.93-14.88,3.32-15.78,1.08-.7,18.02.9,11.74-4.23-.52-.43-4.79.61-7-1.98-2.13-2.5-2.41-9.83-4.55-13.5-6.35-10.9-26.3-12.01-34.5-1.58-7,8.89-1.6,17.02-17.95,17.07,1.82,6.29,10.35,2.47,14.08,4.89.82.53,8,16.95,7.77,17.9-.57,2.43-8.98,5.47-11.94,8.11-1.33,1.19-11.24,11.62-11.52,12.41-5.57,15.73-3.56,44.16-8.31,61.45-9.13,1.63-8.95,7.43-.11,3.22,3.8,23.34-1.87,50.54,9.19,71.83,1.67,3.22,6.71,4.93,6.79,9.11.08,4.27-6.12,11.88-6.13,20.06,0,10.05,6.14,23.96,6.19,31.97.03,5.38-3.49,10.72-3.65,16-.21,6.98,4.53,29.78.75,35.15-3.66,5.19-34.38-5.07-42.29-5.97-8.15-.92-17.77,1.15-25.42-.58-5.29-1.19-21.67-11.68-29.35-14.65-9.5-3.67-6.56-1.47-15.45-7.03-12.64-7.9-17.2,5.13-19.89,5.88-2.73.76-5.96-2.31-10.18-.39-5.45,2.48-6.25,12.02-15.63,11.8-2.04-.05-4.19-2.57-5.89-2.49-2.47.12-6.02,5.59-9.94,5.42-.95-.04-1-2.88-1.84-3.4-2.84-1.74-8.84.5-4.34-6.8,2.93-4.75,9.71-1.57,10.65-2.21.99-.66,1.86-5.01,4.24-6.87,3.16-2.47,8.4-3.26,10.37-5.71,1.83-2.27,1.48-6.61,1.95-7.1.44-.45,6.44,3,10.98-1.89,3.05-3.29,2.61-7.85,2.92-8.15.59-.57,5.42,2.5,9.43.63,2.5-1.16,10.63-10.74,14.62-13.54,3.14-2.2,9.78-3.12,11.11-5.02,1.93-2.76-1.51-6.07-.25-8.07,1.81-2.9,13.18,4.11,7.04-13.98l8.03-.02c1.83-4.65-3.43-9.13-3.14-12.16.42-4.25,6.7-5.05,7.13-6.9.54-2.32-4.66-5.35-4.11-9.91.11-.91,4.03-1.2,4.15-2.01,1.07-7.1-5.68-5.82-6.2-8.37-.78-3.81,3.11-9,2.03-13.45-.86-3.55-7.33-1.01-7.89-4.24-.48-2.77,4.57-5.19,4.03-7.9-.63-3.18-7.97-2.7-10.17-4.03-2.4-1.45.53-5.44-.65-7.07-2.07-2.83-7.54-1.04-8.92-2.34-.86-.81.53-4.17-1.44-5.73-3.77-2.99-6.82,1.6-7.83,1.53-1.88-.14-6.28-7.17-11-5.43-3.01-3.11,17.6-19.55-4-16,5.55-5.64,1.95-10.94,2.9-16.07,1.17-6.33,5.22-15.21,5.26-21.04,0-.47-4.29-7.95-4.62-8.28-3.8-3.71-25.59-6.39-28.38-8.39-2.17-1.55-.71-5.68-1.19-6.16-1.2-1.21-32.58,1.47-33.98-.03-.91-.98,2.26-9.87-3.27-11.73-12.26-4.14-13.29,11.41-26.73,7.74.3-2.97-.97-16.91-2.02-18.02-6.69-7.02-1.29,13.34-1.97,14-.67.65-17.71,2.35-18.62,2.12-2.06-.5-1.88-4.82-4.62-5.87-4.39-1.68-10.9,4.62-15.34,7.75-1.8,1.26-1.34,3.83-1.52,3.94-1.64,1-10.36-8.31-13.9-7.97-.69-2.59,17.89-2.41,10.03-7.01-7.14-4.18-16.34-.42-24.06-.96-1.21,7.59,2.63,13.67,6.01,19.98-6.65,1.05-18.32-1.89-24.03.99-5.14,2.59-2.74,11.38-7.23,12.89-2.3.78-39.33-8.44-43.26-10.34-2.76-1.33-4.09-2.15-3.48-5.52h53c.21,0,3-2.79,3-3V63.99l-57.99-4.02,17.98-1.99c.9-7.77-5.29-13.02-7.58-19.46-.86-2.42.03-8.06-.42-8.53-1.39-1.49-35.24-.69-40.78-1.6l-7.22,9.58c11.18-24.39-13.89-17.86-16.02-19.97-.77-.76.97-8.79-.09-9.92-.65-.69-16.52-2.57-18.86-2.14-10.08,1.85-2.29,15.59-3.03,22.04-2.12,2.13-17.7-2.03-20.73-1.43-2.42.48-5.23,6.25-6.99.16-2.66-9.18,1.44-17.23-16.93-12.79-2.92.71-4.7,14.7-10.27,18.27-4.71,3.01-20.04-4.11-22.91-2.06-2.68,1.92.82,14.29-8.33,8.88-.7-.42-2.12-8.79-9.94-11.97-11.54-4.69-13.9,5.56-20.94,6.9-7.28,1.39-17.26-.9-24.95.05-.98,6.03,1.49,3.2,4.86,4.03,6.81,1.69,13.11,1.39,19.65,2.46,1.8.29,6.01.85,5.48,3.47l-32,2,2.03-3.97c-17.53,1.94-40.42,2.6-56.12,10.87-14.35,7.56-6.26,9.37-25.15,9.37-11.07,0-22.64.54-33.72-.28-106.37-7.88-218.23-25.03-324.59-37.39-10.88-1.26-18.27-1.62-29.44-3.62-1.76-.32-6.29,1.72-6.98,1.02-2.37-2.4,6.06-24.13-9.99-19.99-.61.58-1.12,13.5-2.46,16.64-1.54,3.62-9.97,5.96-7.29,15.94,1.43,5.32,7.57,4.72,11.55,6.59,6.35,2.98,4.74,8.07,15.06,1.02l367.54,50.39c22.86,4.78,4.47,29.71,10.44,45.56l41.13,5.87c1.37,8.28-7.5,1.88-10.81,1.98-1.19.04-1.24,3.31-2.7,3.87-4.11,1.58-17.14,3.72-21.63,3.94-.95.05-.99-3.61-1.84-3.85-5.49-1.59-4.56,3.09-6.53,3.9-10.17,4.2-23.6,1.33-34.48,2.13-.41-3.72,4.49-1.55,7.01-1.98,12.54-2.13-6.32-5.64-6.81-6.21-2.12-2.48,4.47-17.19-8.82-17.18-12.78,0-31.27,7.75-45.53,6.26-2.32,1.7-1.16,7.2-3.84,10.16-1.54,1.7-10.1,3.77-9.99,5.98.12,2.22,6.62,1.85,5.95,4.98-10.66,4.21-18.4,6.41-8-5.96-9.57-3.22-6.96,9.77-9.13,10.09-2.5.37-14,1.54-15.64,1.37-2.66-.29-5.67-3.47-6.25-3.43-1.69.12-2.06,5.41-4.37,6-2.34.59-21.71,1.47-25.71,1.45-19.49-.13-23-2.26-44.05.53-4.51.6-8.45-2.16-14.89-1.23-7.03,1.01-9.3,4.45-14.94,7.23-2.13-7.86-2-16.03-12.87-13.87-6.47,7.41,5.81,17.8,5.82,18.85.02,3.11-19.49,8.71-23.19,8.97-3.91.27-7.16-1.9-9.9-1.77-1.67.08-29.4,7.95-30.9,8.69-2.61,1.29-3.01,5.7-4.5,6.6-2.22,1.35-5.96-.35-8.46,2.51-.53.6-8.45,12.45-8.59,13.24-1.04,5.96,6.33,4.42-6.44,9.8,9.43,12.15-1.53,11.54-2.13,14.25-1.19,5.38,4.8,9.12,4.26,13.65-.12.97-4.03,1.22-4.16,2.03-1.1,7.16,5.9,5.93,6.22,8.3.39,2.87-3.83,7.85-1.34,10.85,1.74,2.1,6.58,1.43,7.1,1.99.94,1.02-2.29,7.92-.16,10.68,1.89,2.46,6.84.17,9.4,3.16,1.19,1.39-1.77,5.64,1.69,8.23,2.89,2.17,6.2.03,7.25.81,2.32,1.71,1.76,7.56,5.95,10.03,2.18,1.28,7.57-1.03,9.5,1.38,1.54,1.93,1.24,8.38,2.72,9.34,1.65,1.07,6.59-.51,9.93,1.19,1.69.86-.13,5.35,2.53,7.16,3.15,2.13,8.76,1.55,10.38,3.84,1.44,2.03.18,6.15,1.18,7.76,1.35,2.2,8.43-.02,9.75,1.14,2.9,2.55,1.11,7.02,2.26,8.85,1.4,2.23,8.19-.07,9.7,1.19,2.26,1.88,1.77,6.73,3.95,8.22,2.31,1.58,7.31.32,7.98.99.87.89-.83,5.83.32,7.62,1,1.56,15.54,2.42,13.74,10.29-7.39-4.45-16.9-.14-24.57-2.41-4.94-1.47-9.03-11.43-14.37-11.57-4.26-.11-7.14,4.64-10.51,5.51-13.07,3.41-29.57,5.64-43.36,8.75-4.31.97-13.03,4.92-16.63,5.32-6.86.76-24.98-6.72-33.22-4.96-9.39,2.01-17.87,12.95-29.79,7.2-8.88-4.28-3.9-1.12-12.05-2.29-6.3-.91-13.08-3.86-19.56-4.69-2.5-15.2,5.81-30.14,7.91-44.03.97-6.41-.92-13.84.21-19.79.99-5.26,7.27-7.55,7.94-14.22.62-6.17-3.68-12.6-4.09-19.76-.32-5.45,2.01-31.14,5.44-33.23,2.26-1.38,7.8-1.3,8.45-2.04,2.65-3.03-2.36-14.88-1.48-18.4,1.63-6.57,16.8-16.08,17.58-32.68.44-9.31-11.11-61.89-15.48-70.12-4.52-8.5-13.2-11.82-22.41-12.61,2.73-3.39,5.35-19.15,6.09-19.89,1.38-1.4,13.17,1.63,15.91-1.08-11.83-3.44-7.09-9.84-10.99-19.01-5.8-13.64-27.75-16.82-37.04-5.04-5.96,7.57-3.58,17.71-13.95,22.05,1.8,3.04,10.59,2.17,11.71,3.27.76.75,2.82,13.39,1.38,15.74-3.04,4.96-19.58,4.2-25.08,7.98l-2.02-115.03-3.99-2.95c-1.51,9.45,2.84,31.4-1.95,38.68-.9,1.37-7.04,1.36-3.89,5.17.45.54,3.44-1.24,3.99,2.97,2.36,17.76-4.75,82.78-8.61,101.72-3.37,16.54-14.09,15.73-7.05,39.92,3.49,12,1.85,10.24,3.48,20.36.55,3.44,4.27,5.55,4.06,9.97-.43,8.99-13.73,30.72-14.07,42.02.3,3.23,14.94,3.57,18.02,3.18-1.72,10.58-7.3,17.78-6.05,29.03,1,9.02,9.55,14.79,10,22.09.34,5.53-4.2,10.88-4.01,17.77.2,7.39,10.35,40.59,6.06,45.09-4.61,1.23-9.84-3.57-13.34-3.59-2.94-.01-4.81,3.25-7.72,3.57-4.65.51-14.09-2.49-21.9-1.93-12.34.88-23.4,8.69-35.95,8.06-5.91-.3-12.1-4.18-19.04-3l-5.03-9.11c-2.77,6.11-12.43,2.66-14.76,4.25-1.2.82-8.04,16.61-9.18,17.8-3.15,3.31-15.38,1.91-16.8-.34-5.44-8.64,12-37.76,13.61-46.84,2.04-11.48,4.49-38.25,4.09-49.87-.18-5.07-4.93-29.74-3.99-31,.97-1.3,16.29-1.81,17.85-7.34,1.35-4.79-9.64-19.51-7.54-27.24,1.89-6.96,19.89-14.24,19.29-27.9-9.47-20.94-9.96-52.85-27.48-68.65-6.01-1.13-10.94-4.49-15.06-9.01-.09-.37-.06-.7-.13-1.19-.12-.79-.85-1.25-1.37-1.76,1.54-.73,2.07-2.13,1.48-3.73.67-.25-.78-2.07-.9-2.87.06-.07,6.31,1.29,9.3-1.49,1-.93-.28-4.55.27-5.85,2.3-5.42.96-13.73.77-14.01-.4-.57-1.6-3.62-1.24-4.19.43-.7,1.3-3.92.76-5.14-.16-.36-.85-1.93-.85-2.2,0-.29.44-.49.66-.73,1.06-1.19,1.5-3.35,1.74-4.91.49-3.29.32-6.39-1.32-9.35-.18-.32-.9-1.26-.95-1.45-.07-.27.02-.55-.02-.81-.36-2.25-1.79-4.32-3.93-5.2-.9-.37-2.36-.33-3.22.17-.87.5-1.49,2.1-2.33,2.2-.54.07-2.37-.55-3.06-.68-.98-.18-3.1-.58-3.99-.29-.55.18-.68.58-1.09.76-.91.39-2.41.45-3.53.9-.94.37-1.85,1.06-2.74,1.41-1.17.45-2.37.69-3.57,1.23-2.79,1.24-6.37,3.21-8.82,5.02-1.69,1.25-3.2,2.87-4.87,4.08-.76.55-1.59.94-2.34,1.53-2.31,1.83-5.3,5.12-6.32,7.88-1.94,5.24-2.71,12.01,1.98,16.01.96.82,1.45.77,2.45,1.24,1.12.54,1.61,2.65,2.7,3.29,1.14.67,3.12.37,4.22-.3.04.53.15,1.61.61,1.93.63.44,2.35-.01,2.69.31.2.2.02.53.02.76,0,.78,0,1.33.24,2.08.06.19.71,1.6.79,1.65.05.03.18,0,.27,0l.18-1.01c.33.78,1.02,1.44,1.51,2.13.06.08.31.38.24.45-.73-.11-1.29-.77-1.94-.04-.2.22-.3.69-.37.74-.07.06-.54-.22-.84.08-.73,1.69-1.18,3.48-1.96,5.15-.27.59-.59,1.22-.96,1.81-8.41,6.52-33.15,19.47-36.62,30.12-4.45,13.65-15.18,28.72-8.76,43.53,2.5,5.76,8.45,7.57,9.6,9.39.35.55,3.78,11.82,3.78,12.47.08,6.3-13.48,32.34-13.22,40.13.17,5.05,7.06,4.12,8.07,9.9,1.43,8.12-5.76,23.1-4.13,36.02.9,7.15,5.79,11.41,6.18,17.98.3,5.12-2.22,9.52-1.94,13.75.72,11.13,9.4,47.47-.27,54.28-2.97,2.09-10.96-2.39-13.54-.76-.89.56-1.14,3.6-2.34,4.66-2.15,1.88-5.81,3.39-6.95,5.13-3.64,5.57.26,14.7-12.08,13.93l.97-10.01-7.99.99,9.98-3.03-5.98-3.96c11.39,2.09,6.27-3.68,7.98-12.01-7.88-.22-.37,8.04-9.97,0l-4,12c-2.24-4.84-.21-10.67-.7-14.63-.27-2.17-3.37-4.27-3.51-8.32-.15-4.39,4.65-10.67,4.18-11.03-7.42-5.62-12.04,16.03-10.01,19.97l-5.98-1.98-.03,15.99c-4.5-.3-3.46-7.47-4.01-8.01-.66-.65-20.37,5.58-7.96,8.99-3.6,1.24-3.7,8.68-4.04,9.04-.55.57-14.01-5.35-14.67-5.9-1.43-1.18-1.14-3.51-2.11-5.25-.48-.86-3.07-1.02-3.25-2.2-1.24-8.35,12.93-31.23,13.66-40.25.55-6.82-2.69-8.4-3.5-13.51-2.46-15.55,9.9-36.51,9.9-52.9,8.16-1.03-.56,7.52,8.96,5.99,10.58-1.7,16.28-24.32,18.43-33.58,2.4-10.33,6.45-31.49,6.66-41.51.33-15.88-14.54-73.19-28.13-81.82-8.07-5.13-16.29.13-17.87-14.18-.92-8.36,3.57-9.14,6.62-13.12,1.5-1.96,1.65-5.08,3.33-6.76,2.82-2.83,12.03-1.89,9.96-5.99-2.03-4.01-8.15-2.15-9.62-3.38-.53-.45-1.47-6.62-3.43-9.58-8.94-13.46-32.53-14.83-39.39.46-4.08,9.1.93,16.96-11.53,20.47,2.98,2.76,10.97-.51,13.71,1.27.82.53,4.36,11.26,3.35,13.67-4.71,11.22-19.34,9.72-29.06,12.07-2.21-2.09-2.2-30.28-4.11-36.57-.5-1.64-3.31-1.24-3.81-2.88-5.39-17.68.24-43.28-2.09-61.59-.37-2.92-1.53-6.2-3.99-2.95-1.68,9.46,2.25,26.42.02,34.69-.61,2.27-5.04-.33-4.05,4.28.4,1.88,2.86.47,3.48,1.43,1.96,3.05,3.39,66.6,1.83,72.3-1.39,5.11-5.78,8.1-6.87,12.7-2.31,9.74-7.49,38.75-6.45,47.64,1.8,15.39,9.25,9.35,18.04,16.92-19.42,1.15-5.69,19.98-6.29,26.49-.61,6.57-12.42,26.46-11.83,30.41,2.68,4.87,17.42,4.48,18.12,5.13,2.4,2.24-2.21,27.48-2.16,32.98.1,9.8,6.18,18.45,6.4,26.09.19,6.49-3.68,4.39-4.88,7.34-5.39,13.25,5.62,37.53,2.2,43.2-.67,1.1-5.48,1.86-5.53,3.38-.01.42,4.51,3.48,3.99,5.93-.58,2.68-9.69,5.36-11.49,7.75-.96,1.28-.12,4.54-.69,5.05-.79.71-11.61-.77-19.13,6.97-4.18,4.3-8.42,16.14-11.07,18.76-.87.86-23.15,2.82-24.35,2.39-4.5-1.63-.55-11.62-13.29-7.83,2.93,12.29-3.17,5.41-7.48,7.38-6.17,2.81-2.58,11.95-17.12,2.61-1.77-1.14-1.25-3.86-1.42-3.97-4.16-2.73-4.71,4.63-7.76,7.12-9.38,7.67-17.17-1.62-26.25-4.24.14-14.57,11.74-28.67,13.58-40.41,1.34-8.55-2.13-13.96-1.46-21.26,1.02-11.28,11.77-31.91,13.81-46.35,1.88-13.34-6.44-21.73,12.1-18.9,2.41-2.26-11.02-27.22-10-34.83,1.24-9.2,18.56-19.52,18.12-34.08-.24-8.07-7.39-21.77-9.63-30.56-3.23-12.64-.44-32.49-15.72-40.28-5.27-2.69-10.76-.95-14.71-5.23,4.06-2.62,9.29-20.01,10.17-20.79,1.16-1.03,16.87,1.68,11.78-4.2-.56-.65-6.32-.61-7.6-2.45-.96-1.38-1.52-8.59-3.99-13-8.54-15.26-32.11-15.25-40.5.32-2.1,3.89-2.08,8.92-4.09,11.99-1.78,2.71-8.88,3.32-5.8,7.11.45.55,10.34-4.09,13.99-2.01,7.08,31.24-25.39,17.74-31,44l-3.08-6.92-1.92-110.11-3.99-2.95c-1.25,1.64.9,27.6.16,33.13-.65,4.85-2.32-.99-2.16,11.86.39,31.45-.97,70.78-4.03,101.98-.83,8.51-5.84,18.24-6.05,26.1-.23,8.32,6.11,19.79,6,23.93-.1,3.95-6.95,9.35-7.42,14.29-.38,4,3.56,8.93,3.35,15.39-.41,12.15-7.33,30.83-9.86,43.28l17.99.02c-1.21-5.83,1.77-28.48,11.82-21.8,2.82,1.88,2.56,24.05,2.2,28.81-.39,5.2-3.87,10.15-3.82,14.02.06,4.48,5.45,9.6,5.25,11.99-.14,1.7-11.3,14.01-11.43,25.97-.14,12.18,10.11,42.58,1.87,51.9-1.02,1.16-10.02,6.76-11.2,6.88-5.27.53-2.65-6.97-7.67-5.79l.99,3.99c-8.45,3.81-5.9-2.2-11.99-5.98l-6.01,4,1.02,6.03c6.34.1,5.96-5.61,8.96,3.94-2.28,2.19-23.8-1.85-20.02-9.97-2.38.94-4.45,7.57-7.97,4-.76-.76-.39-20.3-8.98-18.01-3.17.85-1.78,12.63-11.01,8,2.75,7.29,1.66,12.69-.11,20-10.66-7.41-15.44,2.49-21.8,3.2-3.91.44-11.72-2.27-12.08,1.79-.11,1.31,7.02,3.25.97,6.96-15.44-14.55-1.03-29.28.89-43.1,1.07-7.71-2.23-13.3-1.82-19.62.47-7.22,6.81-13.82,7.82-20.36,1.59-10.28-.39-24.52,3-35,1.46-4.51,6.02-6.55,7.93-10.07,5.88-10.82,15.03-57.49,14.27-69.91-.65-10.56-12.08-51.63-17.38-60.62-3.41-5.79-10.13-9.75-16.32-12.82-4.12-3.19-8.35-4.37-9.44-10.75.21-.35.71-.32.28-.79-.34-.36-1.34-.31-1.48-.64l.64-.55c-.8-.83-1.42-2.02-1.91-3.07-.77-1.67-1.23-3.46-1.96-5.15-.3-.3-.77-.02-.84-.08-.06-.05-.17-.52-.37-.74-.64-.72-1.21-.06-1.94.04-.07-.07.18-.37.24-.45.46-.64,1.07-1.25,1.42-1.96.03-.05.07-.09.1-.14l.18.98c.08-.01.21.02.27,0,.08-.05.73-1.47.79-1.65.18-.56.23-1.01.24-1.52.28-.46.57-.94.85-1.44.64.01,1.46.09,1.86-.19.46-.32.57-1.4.61-1.93,1.1.67,3.08.96,4.22.3,1.09-.64,1.58-2.76,2.7-3.29,1-.48,1.49-.43,2.45-1.24,4.7-4,3.92-10.78,1.98-16.01-1.03-2.77-4.01-6.05-6.32-7.88-.75-.6-1.59-.99-2.34-1.53-1.67-1.21-3.18-2.83-4.87-4.08-2.45-1.81-6.03-3.77-8.82-5.02-1.2-.54-2.4-.78-3.57-1.23-.9-.35-1.81-1.03-2.74-1.41-1.12-.45-2.62-.51-3.53-.9-.41-.17-.54-.58-1.09-.76-.89-.29-3.01.11-3.99.29-.7.13-2.53.74-3.06.68-.84-.1-1.46-1.7-2.33-2.2-.86-.5-2.32-.54-3.22-.17-2.14.88-3.57,2.95-3.93,5.2-.04.26.05.54-.02.81-.05.19-.77,1.13-.95,1.45-1.64,2.96-1.81,6.06-1.32,9.35.23,1.55.68,3.72,1.74,4.91.22.25.65.45.66.73,0,.27-.69,1.84-.85,2.2-.55,1.22.33,4.44.76,5.14.05.08.07.22.06.39-.08.39-.16.79-.23,1.17-.31,1.06-.83,2.29-1.07,2.63-.19.28-1.54,8.59.77,14.01,1.02,2.4,3.1,4.12,5.07,5.29,1.88,3.24,3.74,6.7,2.89,9.59-1.05,3.59-23.91,8.1-27.93,13.14l-5.01-117.99c-5.95,7.67-1.95,19.55-3.11,28.89-.48,3.84-4.13,7.4-4,10.08.08,1.6,2.42-2.98,2.06,7.95-1,30.45-.72,70.66-6.13,99.9-3.77,20.35-16.22,28.78-4.4,50.66,1.31,2.43,4.54,2.57,4.68,3.78.5,4.38-3.99,9.64-4.11,13.96-.13,4.64,3.9,6.53,3.93,11.45.05,8.52-4.63,21.58-5.69,30.55-.97,8.18.23,16.61-2.23,24.75,11.39-3.6,23.96-9.86,20-23.98.65-.71,7.3,1.64,7.69,2.3.78,1.32,2.28,26.5,2.38,30.61.09,3.77-2.55,7.89-2.28,12.11.29,4.56,4.16,7.3,4.19,9.98.04,3.66-9.51,13.58-9.91,20.1-.61,10.01,5.67,45.53.86,52.92-.8,1.24-3.79,1.42-4.43,2.44-1.71,2.75-.5,12.78-5.02,17.03-4.36,4.1-35.65-2.32-43.5.49l2.03-3.94s3.74-3.92-23.07,6.17c-30.89-2.17-66.51,20.04-70.09,7.4-21.57,15.83-7.62,9.67-15.83,13.28-5.33,2.34-14.72-2.47-15.02-1.87-2.19,4.24,6.04,1.16,3.98,6.97-8.07,3.57-5.32-.88-8.68-3.28-1.39-.99-3.69-.98-4.98-2.05-2.16-1.79-6.93-9.57-9.27-8.62-5.49,3.6-5.03,6.25-3.08,11.96-4.93-2.37-9,1.34-13.97,2.03l6.01,2.97-6.01,1.99c0,4.42,9.8-1.53,8,3.99-.18.54-7.72,7.54-8.19,7.85-1.43.93-17.85,8.92-18.86,9.19-1.67.45-.07-4.24-1.95-4.01-2.62,7.64-6.02,4.17-6.57,4.52-.78.5-.44,3.8-4.11,4.45-2.49.44-12.13-1.01-13.47-2.83-5.14-7,9.64-36.97,10.64-47.66.41-4.35-2.17-7.96-1.19-13.01,2.81-14.44,10.72-12.35,9.67-38.45-.78-19.37-1.64-36.64-1.88-56.11-.05-3.64-2.28-8.08-2.16-9.74.04-.58,6.58-4.2,8.95-7.29,12.98-16.95,8.02-39.17,4.85-58.63-1.34-8.23-3.68-25.79-7.69-32.31-5.92-9.63-17.68-8.33-25.91-13.91,4.48-5.3,4.65-19.51,7.67-23.75,1.77-2.49,6.81-1.8,9.04-3.17,5.43-3.33-3.18-4.8-4.91-6.98-9.24-11.67-8.27-23.79-30.53-18.69-8.45,1.94-15.59,16.48-14.82,24.28,1.88,19.09,27.19,27.74-14.58,35.27-.98-1.1.69-20.8.15-25.13-.48-3.83-3.83-1.91-4.32-5.73-1.99-15.76.84-37.32.16-54.15-.11-2.69,1.66-8.32-2.98-6.99-2.76.79.17,26.1-1.02,30.69-.42,1.63-4.11,1.13-4.07,2.33.17,5.48,5.92,13.75,4.24,26.13-.68,5.04-2.22.98-2.06,13.77.23,18.43-3.73,33.92-4.19,50.19-.1,3.63,2.89,11.51,2.06,12.9-.18.3-4.59-2.7-5.94.98,6.97,6.87-1.02,11.39-2.09,19.96-2.1,16.83,4.44,31.01,4.11,43.97-.34,13.58-10.37,32.03-12.09,46.06l14.01,1.05c-2.41,14.65-4.42,22.98-.63,37.61.87,3.37,4.32,6.26,4.62,9.47,1.52,16.22-12.24,3.59-16.07,5.84-2.79,1.64-8.37,14.84-14.89,15.07,1.17-18.1-3.27-1.82-7.8-2.01-2.45-.1-16.7-3.29-19.75-4.16-1.61-.46-1.69-2.94-1.99-3.04-4.07-1.31-11.13-3.68-11.48,1.16,8.38.02,7.7,5.29,9.98,12.02l-8.98-9.96c-7.92,2.91-4.65,11.34-5.02,11.96-.57.96-18.92-4.91-21.99-3.99v4c9-1.67,12.68,8.76,14.22,9.76.53.34,9.44-3.38,11.82,1.29-7.37,7.78-.13,10.47-.08,11.96.15,4.15-6.86,1.32-7.55,1.59-3.58,1.37,0,7.39-11.43,1.41-.78-.41-.79,7.8-6.98,2v8c8.81,1.33,17.11,17.58,0,12v292h2912v-360c-7.46-1.6-4.85,10.49-6.02,12ZM2201.03,262c4.49-.88,15.14,19.83,12.96,21.98-4.33,4.28-13.32-11.82-14.43-14.57-1.08-2.67-2.46-6.64,1.46-7.41ZM2191.01,334c2.59-2.95,12.19-21.43,14.96-10.91,2.27,8.6-16.98,23.29-25.97,20.88,3.11-3.79,7.39-5.85,11-9.97ZM1312.03,266.96c-.27-1.7,3.78-1.12,3.94-.96.8.76,2.89,11.17,6.01,13.01l12.01,8.96c-12.09-.03-18.19-11.05-21.96-21.01ZM1322.04,212.99c0-1.87,10.86-8.27,13.41-8.64,3.56-.52,4.35-.23,6.54,2.67,1.25,5.81-16.03,13.52-19.95,5.97ZM1376.01,328.96c.68-5.97,6.97-7.77,11.98-6.98v10.02s-11.98-3.04-11.98-3.04ZM874.02,212c6.06,3.36,3.51,14.21,3.96,19.98-3.81-1.83-8.11-8.91-8-12.8.01-.44,6.22-2.51,4.04-7.17ZM141.29,493.45c-.21.38-3.35.55-3.45,1.71-.19,2.25,2.66,6.43,2.18,6.81-.28.22-3.26-.53-5.37.66-.41.23-1.87,7.75-5.62-.66-4.3-9.63,6.25-9.38,12-13.96,2.07.45,1.11,3.93.26,5.44ZM464.19,415.01c-.27,4.58-3.95,7.22-4.38,11.95-.57,6.35,3.17,12.56,2.18,19.01l-9.98-1c3.34,4.34,10.55,7.42,9.71,13.51-1.24,9.04-7.77,10.97-13.55,14.76-1.19.78-5.6,9.01-10.16,4.74-2.51-2.35,3.28-27.51,4.57-32.44,3.8-14.6,5.35-23.19,8.31-37.69,1.13-5.55,9.11-17.81,9.11-20.89v-31l4.08,16.92c-2.36,13.05.79,30.42.11,42.11ZM638.07,406.9c-.19,4.72-4.45,37.71-6.23,38.95-1.38.96-11.88-1.11-13.33-2.35-5.95-5.07,3.69-36.39,5.29-44.71.96-4.98-.63-10.27.67-15.33,1.55-6.04,10.4-11.91,10.52-19.46,11.69,8.3,1.52,18.94.82,26.97-.49,5.59,2.48,10.61,2.26,15.93ZM824.01,367.98c3.88,4.38,3.35-5.13,5.97-3.98v15.99c-5.74.43-6-5.28-9.96-1.99.26-12.34,2.95-22.46-.01-34.85,1.39-2.63,7.91-16.53,10.96-15.14,8.38,3.82-.9,15.73-2.05,19.9-1.21,4.37-.41,8.49-1.39,12.61-.46,1.93-5.21,5.55-3.52,7.46ZM989.04,396.02c-1.09,1.37-15.97,6.26-19.01,9.96-4.09-19.16-2.5-40.2,1.63-59.35.79-3.65,3.84-6.7,4.32-9.84,1.54-10.08-6.23-19.32,5.01-30.83l7-19.98c.64,8.55,1.17,18.09,2.5,26.51.73,4.66,4.92,10.94,5.03,14.84.09,3.41-3.92,10.39-4.35,16.35-.8,11.03,4.09,44.53-2.12,52.33ZM1189.78,366.77c-.71,6.72-5.15,12.44-4.02,19.02-5.87-1.16-4.34,2.78-7.72,4.17,1.04-3.06-4.05-4.15-4.03-5.19.03-1.97,2.8-5.11,1.8-6.49-.51-.7-3.81-.79-4.78-2.23-1.81-2.7.42-25.72,1.06-30.98.35-2.85,3.31-5.17,3.81-8.19,1.96-11.94-5.01-26.49,12.09-30.89,4.38,8.98-.27,17.87-.06,25.09.34,11.97,3.24,22.48,1.85,35.68ZM2336.04,410.91c-.86-8.87,8.79-23.77,9.31-32.19.97-15.61.99-12.49,4.24-26.14,1.65-6.9-1.59-18.12,6.38-22.6-5.59,12.25,9,31.48,9.23,38.98.11,3.7-3.81,7.97-3.2,13.85.88,8.46,6.29,21.73,6.18,32.2-.22,21.37-30.66,11.29-32.15-4.1ZM2571.99,473.98c-13.87-6.59-22.92-2.1-17.85-20.53.49-1.77,3.64-1.27,3.59-2.43-.19-4.42-5.09-3.99,4.24-7.03.07,2.89,1.15,5,2.76,7.33.44.63,2.6.84,3.26,2.1,3.24,6.25,4.58,13.54,4,20.57ZM2701.98,493.99c-14.92-10.52-9.29-24.71-7.96-39.99,2.86-.48,2.72,3.47,3.38,5.57,3.42,10.88,5.21,23.02,4.58,34.42Z"/>
</svg>