<svg xmlns="http://www.w3.org/2000/svg" width="318" height="318" fill="none" viewBox="0 0 318 318">
  <path fill="url(#a)" d="m270.408 211.869-109.533 19.049-31.111-31.111a5.501 5.501 0 0 0-3.905-1.618h-55.23a5.517 5.517 0 0 0-5.523-5.523H4.353v11.046H37.49v77.322H4.352v11.046h60.754a5.517 5.517 0 0 0 5.523-5.523h15.265l59.047 29.526a18.058 18.058 0 0 0 8.075 1.917c3.142 0 6.28-.823 9.091-2.463l120.49-70.292a18.098 18.098 0 0 0 8.953-15.586 18.03 18.03 0 0 0-6.434-13.819 18.011 18.011 0 0 0-14.708-3.971ZM59.583 281.034H48.536v-77.322h11.047v77.322Zm217.447-45.333-120.485 70.292a6.99 6.99 0 0 1-6.661.21l-60.212-30.106a5.504 5.504 0 0 0-2.474-.586h-16.57v-66.276h52.944l43.517 43.516a10.168 10.168 0 0 1 2.954 7.141c0 5.567-4.529 10.096-10.096 10.096a10.175 10.175 0 0 1-7.141-2.955l-28.565-28.565-7.81 7.81 28.565 28.565a21.003 21.003 0 0 0 14.951 6.191c11.654 0 21.142-9.488 21.142-21.142a21.011 21.011 0 0 0-6.191-14.951l-4.474-4.473 101.867-17.718a6.925 6.925 0 0 1 5.711 1.541 6.988 6.988 0 0 1 2.502 5.362c0 2.48-1.331 4.8-3.474 6.048Z"/>
  <path fill="url(#b)" d="M313.642 38.02V26.975h-34.69c-1.005-1.043-2.402 0-3.971 0h-22.092c-3.054 0-5.523 0-5.523 5.524H232.1L173.048 2.12c-5.473-2.74-11.891-2.955-17.16.121L35.398 72.32c-5.524 3.22-8.954 9.085-8.954 15.48 0 5.341 2.348 10.318 6.43 13.759a17.996 17.996 0 0 0 11.609 4.214 18.35 18.35 0 0 0 3.104-.282l109.527-19.054 31.111 31.961c1.039 1.033 2.441 2.469 3.91 2.469h55.231s2.469 5.523 5.523 5.523h60.753v-11.046h-33.138V38.021h33.138Zm-119.22 71.8-43.51-44.36c-1.911-1.912-2.961-4.878-2.961-7.573 0-5.573 4.529-10.317 10.096-10.317 2.696 0 5.231.944 7.142 2.855l28.565 28.505 7.809-7.837-28.559-28.566a20.985 20.985 0 0 0-14.957-6.208c-11.653 0-21.142 9.484-21.142 21.143 0 5.639 2.193 10.946 6.191 14.95l4.469 4.469L45.698 94.599a6.985 6.985 0 0 1-5.717-1.541 7.017 7.017 0 0 1-2.49-5.363 7.026 7.026 0 0 1 3.473-6.053L161.45 11.355a7.003 7.003 0 0 1 6.661-.21l60.212 30.963c.768.38 1.619 1.436 2.475 1.436h16.569v66.276h-52.944Zm63.99-71.8h11.046v77.323h-11.046V38.021Z"/>
  <path fill="url(#c)" d="M158.997 132.177c-8.997-7.876-23.058-7.671-31.796.641-4.429 4.22-6.865 9.842-6.865 15.846 0 5.998 2.436 11.62 6.865 15.834l27.985 26.643a5.522 5.522 0 0 0 7.617.006l27.985-26.643c4.435-4.22 6.871-9.842 6.871-15.84 0-6.004-2.436-11.626-6.866-15.846-8.743-8.312-22.804-8.511-31.796-.641Zm24.18 24.318-24.18 23.02-24.18-23.02c-2.209-2.11-3.435-4.893-3.435-7.837s1.221-5.733 3.435-7.843c2.381-2.264 5.507-3.396 8.627-3.396 3.126 0 6.252 1.132 8.627 3.396l3.11 2.961a5.53 5.53 0 0 0 7.616 0l3.11-2.961c4.755-4.529 12.493-4.523 17.259-.005 2.226 2.115 3.446 4.904 3.446 7.848s-1.226 5.727-3.435 7.837Z"/>
  <path fill="url(#d)" d="m94.908 116.254-9.157-6.18a88.98 88.98 0 0 0-5.927 10.168l9.892 4.921a76.364 76.364 0 0 1 5.192-8.909Z"/>
  <path fill="url(#e)" d="M72.479 177.615a88.043 88.043 0 0 0 3.17 11.339l10.411-3.678a77.5 77.5 0 0 1-2.773-9.925l-10.808 2.264Z"/>
  <path fill="url(#f)" d="m72.269 142.505 10.842 2.116a76.81 76.81 0 0 1 2.645-9.953l-10.466-3.551a89.042 89.042 0 0 0-3.021 11.388Z"/>
  <path fill="url(#g)" d="M70.629 159.544c.005 2.148.082 4.28.232 6.396l11.013-.779a86.69 86.69 0 0 1-.2-5.634c0-1.568.045-3.126.139-4.678l-11.024-.679a91.057 91.057 0 0 0-.16 5.374Z"/>
  <path fill="url(#h)" d="M231.923 133.757a76.626 76.626 0 0 1 2.768 9.919l10.819-2.242a89.778 89.778 0 0 0-3.165-11.344l-10.422 3.667Z"/>
  <path fill="url(#i)" d="m223.092 202.778 9.146 6.192a88.141 88.141 0 0 0 5.938-10.174l-9.892-4.921a75.507 75.507 0 0 1-5.192 8.903Z"/>
  <path fill="url(#j)" d="m232.244 184.376 10.466 3.551a88.06 88.06 0 0 0 3.027-11.389l-10.842-2.115a77.496 77.496 0 0 1-2.651 9.953Z"/>
  <path fill="url(#k)" d="M247.366 159.544a86.532 86.532 0 0 0-.232-6.462l-11.013.806c.133 1.856.204 3.734.199 5.639 0 1.563-.044 3.115-.138 4.662l11.024.679c.105-1.773.16-3.551.16-5.324Z"/>
  <defs>
    <linearGradient id="a" x1="147.951" x2="147.951" y1="192.666" y2="318" gradientUnits="userSpaceOnUse">
      <stop stop-color="#E22C2B"/>
      <stop offset="1" stop-color="#EE7822"/>
    </linearGradient>
    <linearGradient id="b" x1="170.043" x2="170.043" y1=".001" y2="126.389" gradientUnits="userSpaceOnUse">
      <stop stop-color="#E22C2B"/>
      <stop offset="1" stop-color="#EE7822"/>
    </linearGradient>
    <linearGradient id="c" x1="158.997" x2="158.997" y1="126.423" y2="192.666" gradientUnits="userSpaceOnUse">
      <stop stop-color="#E22C2B"/>
      <stop offset="1" stop-color="#EE7822"/>
    </linearGradient>
    <linearGradient id="d" x1="87.366" x2="87.366" y1="110.074" y2="125.163" gradientUnits="userSpaceOnUse">
      <stop stop-color="#E22C2B"/>
      <stop offset="1" stop-color="#EE7822"/>
    </linearGradient>
    <linearGradient id="e" x1="79.269" x2="79.269" y1="175.351" y2="188.954" gradientUnits="userSpaceOnUse">
      <stop stop-color="#E22C2B"/>
      <stop offset="1" stop-color="#EE7822"/>
    </linearGradient>
    <linearGradient id="f" x1="79.013" x2="79.013" y1="131.117" y2="144.621" gradientUnits="userSpaceOnUse">
      <stop stop-color="#E22C2B"/>
      <stop offset="1" stop-color="#EE7822"/>
    </linearGradient>
    <linearGradient id="g" x1="76.251" x2="76.251" y1="154.17" y2="165.94" gradientUnits="userSpaceOnUse">
      <stop stop-color="#E22C2B"/>
      <stop offset="1" stop-color="#EE7822"/>
    </linearGradient>
    <linearGradient id="h" x1="238.717" x2="238.717" y1="130.09" y2="143.676" gradientUnits="userSpaceOnUse">
      <stop stop-color="#E22C2B"/>
      <stop offset="1" stop-color="#EE7822"/>
    </linearGradient>
    <linearGradient id="i" x1="230.634" x2="230.634" y1="193.875" y2="208.97" gradientUnits="userSpaceOnUse">
      <stop stop-color="#E22C2B"/>
      <stop offset="1" stop-color="#EE7822"/>
    </linearGradient>
    <linearGradient id="j" x1="238.99" x2="238.99" y1="174.423" y2="187.927" gradientUnits="userSpaceOnUse">
      <stop stop-color="#E22C2B"/>
      <stop offset="1" stop-color="#EE7822"/>
    </linearGradient>
    <linearGradient id="k" x1="241.744" x2="241.744" y1="153.082" y2="164.868" gradientUnits="userSpaceOnUse">
      <stop stop-color="#E22C2B"/>
      <stop offset="1" stop-color="#EE7822"/>
    </linearGradient>
  </defs>
</svg>
