<?xml version="1.0" encoding="UTF-8"?>
<svg id="uuid-9ab1fd30-9ef3-4888-a6c4-47fe5c95369b" xmlns="http://www.w3.org/2000/svg" version="1.1" viewBox="0 0 273.4 105.6">
  <!-- Generator: Adobe Illustrator 29.1.0, SVG Export Plug-In . SVG Version: 2.1.0 Build 142)  -->
  <defs>
    <style>
      .st0 {
        fill: #fff;
      }
    </style>
  </defs>
  <polygon class="st0" points="54.8 0 53.1 5.1 48 6.8 53.1 8.5 54.8 13.6 56.5 8.5 61.6 6.8 56.5 5.1 54.8 0"/>
  <polygon class="st0" points="73.2 7 71.1 10.1 67.3 10.3 70.4 12.4 70.6 16.2 72.8 13 76.5 12.9 73.4 10.7 73.2 7"/>
  <polygon class="st0" points="36 7 38.1 10.1 41.8 10.3 38.7 12.4 38.5 16.2 36.4 13 32.7 12.9 35.8 10.7 36 7"/>
  <path class="st0" d="M52.8,24.7v5.4l-12.5,25.9h-9.2l12.6-24h0c0-.1-14-.1-14-.1v-7.1s23.1,0,23.1,0Z"/>
  <path class="st0" d="M78.3,40.3c0,9.2-3.9,16.2-12.3,16.2s-12.3-7.9-12.3-16.1,3.5-16.2,12.4-16.2,12.2,8.1,12.2,16.1h0ZM62.4,40.4c0,6.8,1.4,9.7,3.7,9.7s3.6-2.9,3.6-9.7-1.3-9.6-3.6-9.6-3.7,2.8-3.7,9.6Z"/>
  <path class="st0" d="M36.2,67v4.3h-2.6v-4.3l-4.1-7h2.3c.2,0,.4,0,.5.2.1.1.2.2.3.4l1.6,3.3c.1.3.3.5.4.7s.2.4.3.7c0-.2.2-.4.3-.7,0-.2.2-.5.4-.7l1.6-3.3c0,0,0-.1.1-.2s.1-.1.2-.2c0,0,.2,0,.2-.1,0,0,.2,0,.3,0h2.3l-4.1,7.1h0Z"/>
  <path class="st0" d="M43.8,62v2.7h3.6v1.9h-3.6v2.7h4.7v2h-7.3v-11.4h7.3v2s-4.7,0-4.7,0Z"/>
  <path class="st0" d="M60.3,71.3h-2c-.2,0-.4,0-.6-.2s-.2-.2-.3-.4l-.7-2h-4.3l-.7,2c0,.2-.2.3-.3.4-.2.1-.3.2-.5.2h-2.1l4.4-11.4h2.7l4.4,11.4h0ZM56.2,67l-1-3.1c0-.2-.2-.4-.2-.7s-.2-.6-.3-.9c0,.3-.2.6-.2.9s-.2.5-.2.7l-1,3.1h3.1Z"/>
  <path class="st0" d="M70.6,71.3h-2.4c-.4,0-.8-.2-.9-.5l-1.9-3.3c0-.1-.2-.2-.3-.3s-.3,0-.5,0h-.7v4.2h-2.6v-11.4h3.7c.8,0,1.5,0,2.1.2s1.1.4,1.4.7.6.7.8,1.1c.2.4.2.9.2,1.3s0,.7-.2,1.1-.2.6-.4.9c-.2.3-.4.5-.7.8s-.6.4-1,.5c.2,0,.3.2.5.3s.3.3.4.5l2.4,4h0ZM64.9,65.3c.4,0,.7,0,.9-.1s.5-.2.6-.4c.2-.2.3-.3.3-.6s.1-.5.1-.7c0-.5-.2-.9-.5-1.2s-.8-.4-1.5-.4h-1.1v3.4h1.1Z"/>
  <path class="st0" d="M77.8,62.2c0,.1-.2.2-.2.3,0,0-.2,0-.3,0s-.2,0-.4-.1-.3-.2-.5-.2c-.2,0-.4-.2-.6-.2-.2,0-.5-.1-.8-.1-.5,0-.9.1-1.1.3-.2.2-.4.5-.4.9s0,.4.2.6.3.3.6.4.5.2.8.3.6.2.9.3c.3.1.6.2.9.4s.6.3.8.6.4.5.6.9c.2.3.2.7.2,1.2s0,1-.3,1.5c-.2.5-.4.9-.8,1.2-.3.3-.8.6-1.3.8s-1.1.3-1.7.3-.7,0-1.1-.1-.7-.2-1.1-.3c-.3-.1-.7-.3-1-.5s-.6-.4-.8-.6l.8-1.2c0,0,.1-.2.2-.2,0,0,.2,0,.3,0s.3,0,.5.2.3.2.5.3.4.2.7.3.6.2.9.2.8-.1,1.1-.3c.3-.2.4-.6.4-1s0-.5-.2-.7-.3-.3-.6-.4c-.2-.1-.5-.2-.8-.3-.3,0-.6-.2-.9-.3s-.6-.2-.9-.4c-.3-.2-.6-.3-.8-.6-.2-.2-.4-.5-.6-.9-.2-.4-.2-.8-.2-1.3s0-.8.3-1.2.4-.8.8-1.1c.3-.3.7-.6,1.2-.8s1-.3,1.7-.3.7,0,1,0c.3,0,.6.1.9.2.3.1.6.2.8.4s.5.3.7.5l-.7,1.2h0Z"/>
  <path class="st0" d="M101.4,74c-.3.2-2.1,1.3-4,1.3-3.7,0-5.9,1.2-7.6,2.5-1.6,1.3-2.5,2.8-2.5,2.8,1.9,0,2.4.7,3.4.8,1,0,2.6-.4,6.3-3.5,2.6-2.3,4.1-3.7,4.3-3.9h0Z"/>
  <path class="st0" d="M101.4,74h0s0,0,0,0Z"/>
  <path class="st0" d="M85.5,78.1s1.6-.4,3-1.8c1.4-1.4,2.5-3.9,1.1-7.1-.7-1.7-.7-3.5-.7-3.5,0,0-.1,1.4-1.4,3.9-1.7,3-2.3,4.2-2.3,5.1,0,.9.6,1.6.3,3.3h0Z"/>
  <path class="st0" d="M105.1,65.2c-.2.2-1.6,1.5-3.3,1.9-3.2.7-5,2.2-6.1,3.7-1.1,1.5-1.5,2.9-1.5,2.9,1.7-.3,2.2.1,3.1,0,.9-.2,2.2-.9,4.8-4.3,1.8-2.5,2.9-4,3-4.2h0Z"/>
  <path class="st0" d="M105.1,65.2h0s0,0,0,0Z"/>
  <path class="st0" d="M91,69.1c.2.8.8,1.2,1,2.8,0,0,1.3-.7,2.2-2.2.9-1.5,1.3-3.9-.5-6.5-1-1.4-1.3-3-1.3-3,0,0,.2,1.3-.5,3.8-.9,3.1-1.2,4.2-.9,5h0Z"/>
  <path class="st0" d="M106.8,56.5h0s0,0,0,0Z"/>
  <path class="st0" d="M104.2,58.7c-5.4,2.2-5.3,7.1-5.4,7.3,1.4-.6,2-.3,2.7-.7.8-.3,1.7-1.2,3.3-4.7,1.2-2.5,1.8-4,1.9-4.2-.1.2-1.2,1.6-2.6,2.2h0Z"/>
  <path class="st0" d="M94.9,57.9c-.6,5.8.5,4.2,1.5,6.9,0,0,1-.8,1.5-2.4.5-1.5.4-3.7-1.6-5.6-1.1-1.1-1.6-2.4-1.6-2.4,0,0,.3,1.2.2,3.5h0Z"/>
  <path class="st0" d="M104.9,50.7c-4.3,2.8-3.4,7.1-3.4,7.3,2.1-1.7,2.5.7,4.3-5.7.6-2.4.9-3.8,1-3.9,0,.2-.7,1.6-1.9,2.3h0Z"/>
  <path class="st0" d="M106.8,48.3h0Z"/>
  <path class="st0" d="M95.8,48.6s.5,1,.8,3c.4,5.3,1.2,3.6,2.6,5.8,0,.2,2.8-4.1-1.5-7-1.1-.7-1.8-1.9-1.8-1.9Z"/>
  <path class="st0" d="M105.3,41h0Z"/>
  <path class="st0" d="M102.3,50c1.5-1.8,2.3.2,2.8-5.6.1-2.1.2-3.4.2-3.5,0,.2-.4,1.5-1.3,2.3-3.3,3.1-1.7,6.7-1.8,6.8Z"/>
  <path class="st0" d="M97.8,44.2c-1.1-.5-1.9-1.3-1.9-1.3,0,0,.6.8,1.2,2.6,1.3,4.5,1.6,3,3.2,4.6,0,.1,1.7-4-2.5-5.8h0Z"/>
  <path class="st0" d="M103.1,37.5c-.2-1.9-.3-3-.3-3,0,0,0,1.2-.7,2.1-2.3,3.2-.4,5.9-.4,6,1-1.8,1.9-.2,1.5-5.1h0Z"/>
  <path class="st0" d="M96.9,38.3c-1-.2-1.8-.9-1.8-.9,0,0,.6.6,1.4,2.1,1.8,3.7,1.8,2.3,3.4,3.4,0,0,.8-3.7-3-4.6h0Z"/>
  <path class="st0" d="M100.2,31.4c-.5-1.6-.7-2.4-.7-2.4,0,0,0,1-.3,1.9-1.5,2.9.6,5,.6,5,.5-1.6,1.5-.5.4-4.5h0Z"/>
  <path class="st0" d="M93.5,32.4s.6.5,1.5,1.6c2.1,2.9,1.9,1.7,3.4,2.4,0,0,0-3.1-3.2-3.4-.9,0-1.6-.6-1.6-.5h0Z"/>
  <path class="st0" d="M96.7,29.9c.2-1.4,1.1-.6-.3-3.6-.6-1.2-.9-1.9-.9-1.9,0,0,.2.8,0,1.5-.8,2.5,1.2,3.9,1.2,4h0Z"/>
  <path class="st0" d="M91.2,27.9s.6.3,1.4,1.1c2.1,2.1,1.8,1.1,3.1,1.5,0,0-.4-2.5-3.1-2.4-.7,0-1.4-.3-1.4-.3Z"/>
  <path class="st0" d="M91.5,22c-.3,2,1.4,2.8,1.4,2.9,0-1,.8-.6-.7-2.7-.6-.8-.9-1.3-.9-1.3,0,0,.2.6.2,1.1Z"/>
  <path class="st0" d="M89.7,24.6c1.9,1.4,1.5.7,2.5.9,0,0-.7-1.8-2.7-1.5-.5,0-1.1-.1-1.1-.1,0,0,.5.2,1.2.8h0Z"/>
  <path class="st0" d="M88.5,20.8c-.2-.7.4-.4-.8-1.7-.5-.5-.7-.8-.7-.8,0,0,.2.4.2.8,0,1.4,1.3,1.8,1.3,1.8h0Z"/>
  <path class="st0" d="M88.1,21.2s-.7-1.2-2-.8c-.3.1-.8,0-.8,0,0,0,.3.1.9.4,1.5.8,1.1.4,1.8.4Z"/>
  <path class="st0" d="M8.1,74h0s0,0,0,0Z"/>
  <path class="st0" d="M18.7,81.4c1,0,1.5-.7,3.4-.8,0,0-.9-1.4-2.5-2.8-1.6-1.3-3.9-2.6-7.6-2.5-1.9,0-3.7-1.1-4-1.3.2.2,1.7,1.6,4.3,3.9,3.7,3.1,5.3,3.6,6.3,3.5h0Z"/>
  <path class="st0" d="M22,69.6c-1.3-2.4-1.4-3.9-1.4-3.9,0,0,0,1.7-.7,3.5-1.3,3.2-.2,5.7,1.1,7.1,1.4,1.4,3,1.8,3,1.8-.3-1.8.3-2.4.3-3.3,0-.9-.6-2.1-2.3-5.1h0Z"/>
  <path class="st0" d="M4.4,65.2c.2.2,1.2,1.7,3,4.2,2.6,3.4,3.9,4.2,4.8,4.3.9.1,1.5-.3,3.1,0,0,0-.4-1.5-1.5-2.9-1.1-1.5-2.9-3.1-6.1-3.7-1.7-.3-3.1-1.7-3.3-1.9h0Z"/>
  <path class="st0" d="M4.3,65.2s0,0,0,0c0,0,0,0,0,0Z"/>
  <path class="st0" d="M17.1,60.3s-.3,1.6-1.3,3c-1.8,2.6-1.4,5-.5,6.5.9,1.6,2.2,2.2,2.2,2.2.1-1.6.8-2,1-2.8.2-.8,0-2-.9-5-.6-2.4-.5-3.8-.5-3.8Z"/>
  <path class="st0" d="M8,65.3c.8.3,1.3,0,2.7.7-.1-.1,0-5.1-5.4-7.3-1.4-.6-2.4-2-2.6-2.2,0,.2.8,1.6,1.9,4.2,1.6,3.4,2.6,4.3,3.3,4.6h0Z"/>
  <path class="st0" d="M2.7,56.5h0s0,0,0,0h0Z"/>
  <path class="st0" d="M13.2,56.9c-2.1,1.9-2.1,4.1-1.6,5.6.5,1.5,1.5,2.4,1.5,2.4,1.1-2.7,2.2-1.1,1.5-6.9-.1-2.3.2-3.5.2-3.5,0,0-.5,1.3-1.6,2.4h0Z"/>
  <path class="st0" d="M2.7,48.3h0s0,0,0,0Z"/>
  <path class="st0" d="M8.1,58c0-.1.9-4.4-3.4-7.3-1.1-.8-1.8-2.2-1.9-2.3,0,.2.4,1.5,1,3.9,1.8,6.4,2.3,4,4.3,5.7h0Z"/>
  <path class="st0" d="M10.3,57.4c1.4-2.2,2.1-.5,2.6-5.8.3-2.1.8-3,.8-3,0,0-.7,1.1-1.8,1.9-4.3,2.9-1.5,7.1-1.5,7Z"/>
  <path class="st0" d="M7.2,50c0-.1,1.5-3.7-1.8-6.8-.9-.8-1.2-2.1-1.3-2.3,0,.2.1,1.4.2,3.5.5,5.7,1.3,3.8,2.8,5.6Z"/>
  <path class="st0" d="M4.2,41h0Z"/>
  <path class="st0" d="M9.2,50c1.6-1.6,1.9,0,3.2-4.6.6-1.8,1.2-2.6,1.1-2.6,0,0-.8.9-1.9,1.3-4.1,1.8-2.5,5.9-2.5,5.8h0Z"/>
  <path class="st0" d="M7.8,42.6c0,0,1.9-2.9-.4-6-.7-.9-.7-2.1-.7-2.1,0,0,0,1.1-.3,3-.4,4.9.5,3.4,1.5,5.1h0Z"/>
  <path class="st0" d="M13,39.5c.8-1.5,1.4-2.1,1.4-2.1,0,0-.8.7-1.8.9-3.8,1-3.1,4.7-3,4.6,1.6-1.1,1.6.3,3.4-3.4h0Z"/>
  <path class="st0" d="M10.3,30.8c-.4-.8-.3-1.9-.3-1.9,0,0-.2.9-.7,2.4-1.1,4-.1,2.8.4,4.5,0,0,2-2.1.6-5h0Z"/>
  <path class="st0" d="M14.5,34c.9-1.1,1.5-1.6,1.5-1.6,0,0-.8.5-1.6.5-3.3.3-3.3,3.5-3.2,3.4,1.5-.7,1.3.5,3.4-2.4h0Z"/>
  <path class="st0" d="M13.9,26c-.2-.7,0-1.5,0-1.5,0,0-.3.7-.9,1.9-1.4,3-.5,2.3-.3,3.6,0,0,1.9-1.4,1.2-4h0Z"/>
  <path class="st0" d="M13.8,30.5c1.3-.4,1,.6,3.1-1.5.9-.8,1.4-1.1,1.4-1.1,0,0-.7.3-1.4.3-2.6-.1-3.1,2.4-3.1,2.4Z"/>
  <path class="st0" d="M16.6,24.9s1.7-.9,1.4-2.9c0-.5.2-1.1.2-1.1,0,0-.3.5-.9,1.3-1.5,2.1-.7,1.6-.7,2.7Z"/>
  <path class="st0" d="M17.2,25.5c1-.1.6.6,2.5-.9.8-.5,1.2-.8,1.2-.8,0,0-.6.2-1.1.1-2-.3-2.7,1.5-2.7,1.5Z"/>
  <path class="st0" d="M21,20.8s1.2-.5,1.3-1.8c0-.4.2-.8.2-.8,0,0-.2.3-.7.8-1.2,1.3-.6,1-.8,1.7h0Z"/>
  <path class="st0" d="M21.4,21.2c.7,0,.4.5,1.8-.4.6-.3.9-.4.9-.4,0,0-.4,0-.8,0-1.3-.4-2,.8-2,.8Z"/>
  <path class="st0" d="M20.2,96.7c-.4-2.4-.8-4.8-1.1-7.2-5.3.8-9.9,1.7-10.7,1.8-5,.7-7.9,1.4-8.3,1.5.5,0,3.6-.1,5.8,1.2,2.8,1.7,5.3,2.4,7.6,2.7-2,1.1-4,2.7-5.8,5.4-1.4,2.1-4,3.4-4.5,3.6.4-.1,3.1-.8,7.7-2.1,1.2-.4,11.7-2.4,19.2-3.1-.2-1.7-.4-3.3-.6-5-3.1.3-6.2.8-9.3,1.2h0Z"/>
  <path class="st0" d="M35.8,86.8c0-.2-.2-.4-.4-.6s-.4-.3-.6-.3-.5,0-.8,0c-.3,0-.5,0-.7.2-.2.1-.4.3-.5.4s-.2.4-.3.7c0,.2,0,.5,0,.8,0,.3,0,.6.2.8.1.2.2.4.4.6s.4.3.6.3.5,0,.8,0c.3,0,.5,0,.7-.2.2-.1.4-.2.5-.4.1-.2.2-.4.3-.7s0-.5,0-.8c0-.3,0-.6-.2-.8h0Z"/>
  <path class="st0" d="M90.1,83c-23.5-3.5-47.3-3.5-70.8,0,.6,4.1,1.2,8.2,1.8,12.3,22.3-3.3,44.9-3.3,67.1,0,.6-4.1,1.2-8.2,1.8-12.3h0ZM37.3,88.8c-.1.4-.3.8-.6,1.1-.3.3-.6.6-1,.8-.4.2-.8.3-1.3.4-.5,0-.9,0-1.3-.1-.4-.1-.8-.3-1.1-.6s-.6-.6-.8-.9c-.2-.4-.3-.8-.4-1.2s0-.9.1-1.3.3-.8.6-1.1c.3-.3.6-.6,1-.8s.8-.3,1.3-.4c.5,0,1,0,1.4.1.4.1.8.3,1.1.6.3.3.6.6.8.9s.3.8.3,1.2c0,.4,0,.9-.1,1.3h0ZM39.7,86.9c.7,0,1.4,0,2.1-.1,0,.4,0,.7,0,1.1-.7,0-1.4,0-2.1.1,0,.8.1,1.6.2,2.4-.5,0-1,0-1.4.1-.2-2.1-.3-4.1-.5-6.2,1.4,0,2.7-.2,4.1-.3v1.1c-.8,0-1.7,0-2.5.2v1.6h.1ZM48.8,88.8c0,.2-.2.5-.4.7s-.4.3-.7.5c-.3.1-.6.2-.9.2-.2,0-.4,0-.6,0-.2,0-.4,0-.6-.1s-.4-.1-.5-.2-.3-.2-.4-.3c.1-.2.3-.5.4-.7,0,0,0,0,.1-.1,0,0,.1,0,.2,0,0,0,.2,0,.3,0s.2.1.3.2.2.1.4.2c.1,0,.3,0,.5,0,.3,0,.5,0,.6-.2s.2-.3.2-.6c0-.1,0-.3-.1-.3s-.2-.2-.3-.2c-.1,0-.3,0-.5-.1s-.3,0-.5-.1-.3-.1-.5-.2-.3-.2-.5-.3c-.1-.1-.2-.3-.3-.5,0-.2-.1-.4-.2-.7,0-.2,0-.5.1-.7s.2-.4.4-.6.4-.3.7-.4c.3-.1.6-.2.9-.2.2,0,.4,0,.6,0,.2,0,.4,0,.5.1s.3.1.5.2c.2,0,.3.2.4.3-.1.2-.2.4-.3.7,0,0,0,.1-.1.2,0,0-.1,0-.2,0,0,0-.1,0-.2,0s-.2,0-.3-.1c0,0-.2,0-.3-.1s-.3,0-.4,0c-.3,0-.5,0-.6.2s-.2.3-.2.5c0,.1,0,.2.1.3s.2.1.3.2c.1,0,.3,0,.5.2.2,0,.3,0,.5.2s.3.1.5.2c.2,0,.3.2.5.3s.2.3.3.5.1.4.1.7c0,.3,0,.6-.1.8h0ZM49.8,90v-6.2c1.2,0,2.6,0,4,0v1.1c-.9,0-1.7,0-2.6,0v1.4c.7,0,1.3,0,2,0v1.1c-.7,0-1.3,0-2,0v1.5c.9,0,1.7,0,2.6,0v1.1c-1.3,0-2.7,0-4,0h0ZM58.4,89.9c-.2,0-.4,0-.5-.3-.3-.6-.7-1.2-1-1.8,0,0,0-.1-.2-.2s-.1,0-.3,0h-.4v2.3h-1.5v-6.2h2.1c.5,0,.8,0,1.2.2.3,0,.6.2.8.4s.3.4.4.6.1.5.1.7c0,.2,0,.4,0,.6,0,.2-.1.3-.2.5s-.2.3-.4.4-.3.2-.5.3c0,0,.2.1.3.2,0,0,.2.2.2.3.4.7.9,1.4,1.3,2.2-.4,0-.9,0-1.3,0h0ZM63.1,90.1c-.4,0-.9,0-1.3,0-.8-2.1-1.5-4.2-2.3-6.2.4,0,.8,0,1.2,0,.1,0,.2,0,.3,0s.1.1.2.2c.4,1.1.8,2.2,1.1,3.3,0,.2,0,.3.2.5,0,.2,0,.3.1.5,0-.2,0-.4.2-.5s.1-.3.2-.5c.4-1.1.9-2.2,1.3-3.2,0,0,0-.2.2-.2,0,0,.2,0,.3,0,.4,0,.8,0,1.2,0-.9,2-1.9,4-2.8,6.1h0ZM67.5,90.3c-.5,0-1,0-1.4,0l.3-6.2c.5,0,1,0,1.5,0-.1,2.1-.2,4.1-.4,6.2h0ZM70.1,88.2c0,.2.2.5.3.6.1.2.3.3.5.4s.4.2.6.2c.1,0,.2,0,.4,0s.2,0,.3,0,.2,0,.3,0c0,0,.2,0,.3-.2,0,0,0,0,.1,0,0,0,0,0,.1,0s0,0,0,0c0,0,0,0,0,0,.2.2.3.4.5.6-.3.3-.6.5-1,.7s-.8.2-1.3.1c-.5,0-.9-.2-1.2-.3s-.7-.4-.9-.7-.4-.6-.5-1c-.1-.4-.2-.8-.1-1.3,0-.5.1-.9.3-1.2.2-.4.4-.7.7-.9.3-.3.7-.4,1.1-.6.4-.1.8-.2,1.3-.1.2,0,.5,0,.7.1s.4.1.6.2c.2,0,.3.2.5.3.1.1.3.2.4.4-.2.2-.4.4-.6.6,0,0,0,0-.1,0,0,0-.1,0-.2,0,0,0,0,0-.1,0,0,0,0,0-.1,0,0,0,0,0-.2-.1,0,0-.1,0-.2-.1s-.2,0-.3-.1c-.1,0-.2,0-.4,0-.2,0-.5,0-.7,0-.2,0-.4.2-.6.3-.2.2-.3.4-.4.6,0,.2-.2.5-.2.8s0,.6,0,.8h0ZM78.8,86.2c-.9,0-1.7-.2-2.6-.3v1.4c.5,0,1.2.1,1.8.2,0,.3,0,.7-.1,1.1-.7,0-1.3-.1-2-.2v1.5c.7,0,1.6.2,2.4.3,0,.4,0,.7-.1,1.1-1.3-.2-2.6-.3-4-.4.2-2.1.4-4.1.6-6.2,1.4.1,2.7.3,4.1.4,0,.4,0,.7-.1,1.1h0Z"/>
  <path class="st0" d="M56.7,84.8h-.6v1.8h.6c.2,0,.4,0,.5,0s.2-.1.3-.2c0,0,.2-.2.2-.3,0-.1,0-.2,0-.4,0-.3,0-.5-.3-.6s-.5-.2-.8-.2h0Z"/>
  <path class="st0" d="M109.5,92.7c-.5,0-3.3-.8-8.3-1.5-.8-.1-5.4-1-10.7-1.8-.4,2.4-.8,4.8-1.1,7.2-3.1-.5-6.2-.9-9.3-1.2-.2,1.7-.4,3.3-.6,5,7.5.7,18.1,2.7,19.2,3.1,4.6,1.2,7.3,2,7.7,2.1-.4-.2-3.1-1.5-4.5-3.6-1.8-2.7-3.8-4.3-5.8-5.4,2.2-.3,4.7-1,7.6-2.7,2.2-1.3,5.3-1.3,5.8-1.2h0Z"/>
  <path class="st0" d="M14.1,82.4c.3.1,1.7,1,4.3,2.3,0-.6-.2-1.2-.3-1.8-1.8.2-3.6-.4-4-.5Z"/>
  <path class="st0" d="M14.1,82.4s0,0,0,0c0,0,0,0,0,0Z"/>
  <path class="st0" d="M25.5,74.4c-.5,3,.7,5.1,2.1,6.4,1.4-.2,2.8-.3,4.2-.4,0-.5,0-.8-.1-1.3-.3-1-1.3-2-3.9-4.8-2-2.2-2.4-3.8-2.5-3.7,0,0,.4,1.8.1,3.8h0Z"/>
  <path class="st0" d="M84,74.4c-.3-2,.1-3.8.1-3.8,0,0-.5,1.5-2.4,3.7-2.6,2.8-3.7,3.8-3.9,4.8-.1.4-.1.8-.1,1.3,1.4.1,2.8.3,4.2.4,1.5-1.3,2.6-3.4,2.1-6.4h0Z"/>
  <path class="st0" d="M95.4,82.4h0s0,0,0,0Z"/>
  <path class="st0" d="M91.4,83c0,.6-.2,1.2-.3,1.8,2.6-1.4,4-2.2,4.3-2.3-.3.1-2.2.8-4,.5h0Z"/>
  <g>
    <g>
      <path class="st0" d="M139.8,54.4c1.1,0,1.3-.3,1.3-1.4v-23.6h-5.9c-.9,0-1.2.2-1.4,1l-1.4,5.5-2-.3,1.1-8.4h24.4l1.1,8.4-2,.3-1.4-5.5c-.2-.8-.5-1-1.4-1h-5.9v23.6c0,1.1.3,1.4,1.4,1.4h2.9v1.6h-13.9v-1.6h2.9Z"/>
      <path class="st0" d="M192.4,53.8h11.6c1.2,0,1.4-.2,1.7-.9l1.3-4.7,1.9.3-.7,7.5h-25.4v-1.6h2.9c1.1,0,1.3-.3,1.3-1.4v-22.8c0-1.1-.2-1.4-1.3-1.4h-2.9v-1.6h24.7v6.2h-1.5l-.6-3c-.2-.9-.4-1.1-1.2-1.1h-11.8v9.9h8.6c1,0,1.1-.1,1.2-.9l.3-1.5,1.2.3v6.5l-1.2.3-.3-1.5c-.2-.8-.3-.9-1.2-.9h-8.6v12h0Z"/>
      <path class="st0" d="M236.7,28.8h2.9c1.1,0,1.3.3,1.3,1.4v15.8c0,5.8,2.9,10.5,12.1,10.5s12.2-4.1,12.2-12.7v-13.5c0-1.1.2-1.4,1.3-1.4h2.9v-1.6h-6.2v17.9c0,6.3-3.5,9.4-9.4,9.4s-7.4-2.2-7.4-8.4v-15.9c0-1.1.2-1.4,1.3-1.4h2.8v-1.6h-13.6v1.6h0Z"/>
      <path class="st0" d="M235.8,28.7l.4,7.1-1.7.3c-.9-4.8-3.1-7.6-9.1-7.6s-11.1,3.6-11.1,13.2,4,12.5,9,12.5,9-2.1,13.3-5.6l-.6,4.3c-1.8,1.3-5.9,3.4-12.1,3.4s-15.6-4.8-15.6-15,5.4-14.6,16.9-14.6,7.4.7,9.4,1.4c0,0,.4.2,1.1.6h0Z"/>
      <path class="st0" d="M171.1,27.2h-13v8.6h0v17.2c0,1.1-.2,1.4-1.3,1.4h-2.8v1.6h16.7c8.9,0,14.5-4.5,14.5-14.4s-5.6-14.4-14.1-14.4h0ZM166.4,54.4c-1,0-2-.2-3-.3v-25.1c1,0,2.7-.1,4.2-.1,8.1,0,11.7,3.7,11.7,12.8s-4.4,12.8-12.9,12.8h0Z"/>
    </g>
    <rect class="st0" x="130.5" y="61.6" width="138.7" height="1.1"/>
    <g>
      <path class="st0" d="M130.8,68.4h1.5l2.5,4.3,2.5-4.3h1.5l-3.3,5.8v4.4h-1.3v-4.4l-3.3-5.8h0Z"/>
      <path class="st0" d="M149.6,73.5c0,3-2.4,5.3-5.3,5.3s-5.3-2.3-5.3-5.3,2.4-5.3,5.3-5.3,5.3,2.4,5.3,5.3ZM148.3,73.5c0-2.2-1.7-4.1-4.1-4.1s-4.1,1.9-4.1,4.1,1.9,4.1,4.1,4.1,4.1-1.8,4.1-4.1Z"/>
      <path class="st0" d="M152.5,68.4v6c0,1.7.5,3.2,2.5,3.2s2.5-1.5,2.5-3.2v-6h1.3v6.4c0,2.2-1.4,4-3.7,4s-3.7-1.7-3.7-4v-6.4h1.3,0Z"/>
      <path class="st0" d="M167.3,78.6h-1.5l-3-4.3h-.5v4.3h-1.3v-10.2h1.5c.9,0,1.9,0,2.7.5.9.5,1.3,1.5,1.3,2.4,0,1.5-1,2.7-2.4,2.8l3.2,4.4h0ZM162.2,73.2h.4c1.3,0,2.7-.2,2.7-1.9s-1.5-1.8-2.8-1.8h-.3v3.7h0Z"/>
      <path class="st0" d="M180.7,70.3c-.7-.7-1.7-1-2.7-1-2.3,0-4,1.9-4,4.2s1.7,4.1,4,4.1,2-.4,2.7-1.1v1.5c-.8.5-1.8.7-2.7.7-2.9,0-5.3-2.3-5.3-5.3s2.4-5.4,5.4-5.4,1.8.2,2.6.7v1.5h0Z"/>
      <path class="st0" d="M189.1,78.6h-1.5l-3-4.3h-.5v4.3h-1.3v-10.2h1.5c.9,0,1.9,0,2.7.5.9.5,1.3,1.5,1.3,2.4,0,1.5-1,2.7-2.4,2.8l3.2,4.4h0ZM184,73.2h.4c1.3,0,2.7-.2,2.7-1.9s-1.5-1.8-2.8-1.8h-.3v3.7h0Z"/>
      <path class="st0" d="M190.6,68.4h5.5v1.2h-4.2v2.8h4.1v1.2h-4.1v3.8h4.2v1.2h-5.5v-10.2h0Z"/>
      <path class="st0" d="M198.1,68.4h2.1c3.1,0,5.7,1.7,5.7,5s-2.5,5.2-5.8,5.2h-2.1v-10.2h0ZM199.4,77.4h.4c2.6,0,4.8-1,4.8-3.9s-2.2-3.9-4.8-3.9h-.4v7.9h0Z"/>
      <path class="st0" d="M209.2,78.6h-1.3v-10.2h1.3v10.2Z"/>
      <path class="st0" d="M214.7,78.6h-1.3v-9h-2.4v-1.2h6.1v1.2h-2.4v9h0Z"/>
      <path class="st0" d="M224.2,68.4v6c0,1.7.5,3.2,2.5,3.2s2.5-1.5,2.5-3.2v-6h1.3v6.4c0,2.2-1.4,4-3.7,4s-3.7-1.7-3.7-4v-6.4h1.3,0Z"/>
      <path class="st0" d="M232.6,67.9l7.6,8v-7.5h1.3v10.6l-7.6-8v7.6h-1.3v-10.7h0Z"/>
      <path class="st0" d="M245.3,78.6h-1.3v-10.2h1.3v10.2Z"/>
      <path class="st0" d="M258,73.5c0,3-2.4,5.3-5.3,5.3s-5.3-2.3-5.3-5.3,2.4-5.3,5.3-5.3,5.3,2.4,5.3,5.3ZM256.7,73.5c0-2.2-1.7-4.1-4.1-4.1s-4.1,1.9-4.1,4.1,1.9,4.1,4.1,4.1,4.1-1.8,4.1-4.1Z"/>
      <path class="st0" d="M259.9,67.9l7.6,8v-7.5h1.3v10.6l-7.6-8v7.6h-1.3v-10.7h0Z"/>
    </g>
    <path class="st0" d="M273.4,28.8c0,.9-.7,1.6-1.7,1.6s-1.7-.7-1.7-1.6.7-1.6,1.7-1.6,1.7.7,1.7,1.6ZM270.5,28.8c0,.7.5,1.3,1.3,1.3s1.2-.6,1.2-1.3-.5-1.3-1.2-1.3-1.3.6-1.3,1.3h0ZM271.5,29.6h-.4v-1.6c.1,0,.4,0,.6,0s.5,0,.6.1c0,0,.2.2.2.4s-.1.3-.3.4h0c.2,0,.2.2.3.4,0,.2,0,.4.1.4h-.4c0,0,0-.2-.1-.4,0-.2-.1-.3-.3-.3h-.2v.6h0ZM271.5,28.7h.2c.2,0,.4,0,.4-.2s-.1-.2-.4-.2-.2,0-.2,0v.5Z"/>
  </g>
</svg>