<svg xmlns="http://www.w3.org/2000/svg" width="348" height="348" fill="none" viewBox="0 0 348 348">
  <path stroke="url(#a)" stroke-linejoin="round" stroke-width="13" d="M173.961 123.693c-11.597-13.181-30.934-16.726-45.464-4.657-14.529 12.07-16.575 32.248-5.165 46.524 6.785 8.488 23.404 23.709 35.761 34.655 5.101 4.518 7.651 6.777 10.722 7.693 2.626.783 5.664.783 8.291 0 3.07-.916 5.621-3.175 10.722-7.693 12.357-10.946 28.975-26.167 35.76-34.655 11.41-14.276 9.615-34.581-5.165-46.524-14.779-11.942-33.867-8.524-45.462 4.657Z" clip-rule="evenodd"/>
  <path stroke="url(#b)" stroke-linejoin="round" stroke-width="13" d="M43.5 104.4c0-16.242 0-24.362 3.16-30.566a28.997 28.997 0 0 1 12.674-12.673C65.538 58 73.66 58 89.9 58h168.2c16.241 0 24.363 0 30.566 3.16a29 29 0 0 1 12.673 12.674C304.5 80.038 304.5 88.16 304.5 104.4V290l-48.202-24.102c-3.654-1.827-5.481-2.74-7.397-3.384a29.072 29.072 0 0 0-5.226-1.234c-2.001-.28-4.044-.28-8.128-.28H89.9c-16.242 0-24.362 0-30.566-3.161a29 29 0 0 1-12.673-12.673C43.5 238.963 43.5 230.841 43.5 214.6V104.4Z"/>
  <defs>
    <linearGradient id="a" x1="174" x2="174" y1="111.649" y2="208.496" gradientUnits="userSpaceOnUse">
      <stop stop-color="#EE7822"/>
      <stop offset="1" stop-color="#E22C2B"/>
    </linearGradient>
    <linearGradient id="b" x1="174" x2="174" y1="58" y2="290" gradientUnits="userSpaceOnUse">
      <stop stop-color="#EE7822"/>
      <stop offset="1" stop-color="#E22C2B"/>
    </linearGradient>
  </defs>
</svg>
