<svg xmlns="http://www.w3.org/2000/svg" width="214" height="307" fill="none" viewBox="0 0 214 307">
  <path fill="url(#a)" d="M.059 198.753c0 3.018 1.165 15.669 9.683 30.684 7.211 12.712 20.898 27.579 46.087 30.865v42.448c0 5.842 4.72 10.579 10.543 10.579 5.821 0 10.54-4.737 10.54-10.579v-52.364c0-5.841-4.719-10.578-10.54-10.578-17.331 0-30.11-6.82-37.978-20.269-5.803-9.918-7.276-18.296-7.276-21.987v-86.803c0-1.879 0-6.876 8.659-6.876 8.656 0 8.656 4.995 8.656 6.876v36.441a10.59 10.59 0 0 0 3.254 7.643 10.471 10.471 0 0 0 7.751 2.925c.025-.011 6.162.023 13.922 4.421 11.913 6.753 21.526 20.304 27.799 39.187 1.841 5.542 7.812 8.54 13.335 6.691 5.524-1.848 8.509-7.839 6.668-13.381-13.64-41.065-37.622-53.13-51.643-56.644V40.176c0-2.289 0-6.121 8.658-6.121 8.656 0 8.656 3.832 8.656 6.121v57.729c0 5.842 4.72 10.578 10.542 10.578s10.542-4.736 10.542-10.578V27.332c0-2.29 0-6.121 8.657-6.121s8.657 3.832 8.657 6.12v70.574c0 5.842 4.721 10.578 10.542 10.578s10.542-4.736 10.542-10.578V40.176c0-2.289 0-6.121 8.657-6.121s8.657 3.832 8.657 6.121v75.184c0 5.841 4.721 10.578 10.543 10.578 5.822 0 10.542-4.737 10.542-10.578V75.84c0-1.879 0-6.876 8.658-6.876 8.657 0 8.666 4.996 8.666 6.877v122.78c.011.187.753 19.078-10.427 30.949-6.398 6.794-15.91 10.238-28.271 10.238-5.822 0-10.542 4.737-10.542 10.578v52.364c0 5.842 4.72 10.579 10.542 10.579s10.542-4.737 10.542-10.579v-42.458c13.526-1.806 24.613-7.231 33.052-16.191 16.635-17.663 16.31-42.81 16.179-46.305V75.841c0-16.505-12.232-28.033-29.742-28.033-3.061 0-5.957.36-8.658 1.03v-8.66c0-16.317-11.953-27.278-29.743-27.278-4.19 0-8.052.615-11.515 1.758C128.909 5.596 119.219.055 106.576.055s-22.332 5.54-26.884 14.602C76.23 13.514 72.368 12.9 68.178 12.9c-17.79 0-29.744 10.961-29.744 27.277v43.57c-2.7-.67-5.596-1.03-8.656-1.03-17.513 0-29.744 11.53-29.744 28.034 0 0 .025 65.178.025 88.003Z"/>
  <defs>
    <linearGradient id="a" x1="106.588" x2="106.588" y1=".055" y2="313.329" gradientUnits="userSpaceOnUse">
      <stop stop-color="#EE7822"/>
      <stop offset="1" stop-color="#E22C2B"/>
    </linearGradient>
  </defs>
</svg>
