<svg width="317" height="318" viewBox="0 0 317 318" fill="none" xmlns="http://www.w3.org/2000/svg">
<g clip-path="url(#clip0_9_50)">
<path d="M52.6854 204.97C52.6854 208.083 53.849 221.133 62.3509 236.622C69.5486 249.736 83.2096 265.073 108.352 268.462V312.25C108.352 318.276 109.199 323.162 115.011 323.162C120.822 323.162 120.58 317.824 120.58 311.798V266.325C120.58 260.299 115.331 256.525 109.521 256.525C92.2222 256.525 78.9357 240.904 71.0822 227.03C65.2894 216.8 64.4362 207.54 64.4362 203.733C64.4362 180.7 64.4362 114.189 64.4362 114.189C64.4362 112.251 65.1703 100.939 78.0795 100.939C90.9886 100.939 90.9886 112.248 90.9886 114.188L90.9896 149.234C90.9896 152.211 92.1616 155.059 94.237 157.118C96.3113 159.175 97.8427 160.1 101.708 161.065C105.574 162.03 108.124 162.705 115.869 167.241C127.76 174.207 137.355 188.186 143.616 207.665C145.454 213.383 147.427 215.385 152.94 213.477C158.454 211.571 154.936 203.677 154.936 203.677C141.321 161.316 115.895 152.858 101.9 149.234C101.9 149.234 101.708 44.5988 101.708 42.2376C101.708 39.8765 101.826 23.4083 116.999 23.4083C132.171 23.4083 132.171 39.6587 132.171 42.2376C132.171 44.8165 132.363 100.939 132.363 100.939C132.363 106.966 132.171 111.851 138.191 111.851C144.211 111.851 143.93 106.966 143.93 100.939V31.922C143.93 29.5608 143.93 13.2507 158.059 13.2507C171.905 13.2507 171.905 29.5608 171.905 31.922V100.939C171.905 106.966 172.355 111.851 178.166 111.851C183.977 111.851 184.381 106.966 184.381 100.939V39.6587C184.381 37.2976 184.381 21.5033 198.677 21.5033C212.972 21.5033 211.922 37.2976 211.922 39.6587V118.944C211.922 124.97 212.322 129.408 218.133 129.408C223.945 129.408 223.808 124.97 223.808 118.944V80.9213C223.808 78.9823 223.808 60.9312 239.557 60.9312C255.306 60.9312 254.306 78.9812 254.306 80.9213V209.262C254.306 211.201 252.705 228.943 241.545 241.188C235.16 248.196 225.665 254.74 213.327 254.74C207.516 254.74 202.805 258.514 202.805 264.54V316.678C202.805 322.704 205.02 323.162 210.832 323.162C216.643 323.162 216.204 318.276 216.204 312.25V268.451C229.705 266.588 240.771 260.992 249.195 251.749C265.799 233.529 265.474 207.588 265.343 203.983V78.1781C265.343 61.1528 252.174 51.1071 239.557 51.1071C231.006 51.1071 227.166 52.6558 223.808 57.3019V41.3887C223.808 24.5571 215.084 13.2507 197.327 13.2507C193.145 13.2507 187.838 13.8851 184.381 15.0646C179.843 5.71573 171.624 2.06493 159.005 2.06493C146.385 2.06493 136.714 5.71573 132.171 15.0635C128.715 13.884 124.86 13.2497 120.678 13.2497C102.92 13.2497 90.9896 24.5571 90.9896 41.3876V91.7527C90.9896 91.5289 88.8013 88.1422 82.3492 88.1422C64.869 88.1422 52.6613 97.1642 52.6613 114.189C52.6613 114.189 52.6854 181.425 52.6854 204.97Z" fill="url(#paint0_linear_9_50)"/>
</g>
<defs>
<linearGradient id="paint0_linear_9_50" x1="159.016" y1="-1.47893e-06" x2="159.016" y2="323.162" gradientUnits="userSpaceOnUse">
<stop stop-color="#EE7822"/>
<stop offset="1" stop-color="#E22C2B"/>
</linearGradient>
<clipPath id="clip0_9_50">
<rect width="317" height="318" fill="white"/>
</clipPath>
</defs>
</svg>
